<svg width="65" height="69" viewBox="0 0 65 69" fill="none" xmlns="http://www.w3.org/2000/svg">
<path d="M6.11934 62.2755C6.11934 62.2639 6.16315 62.2201 6.21669 62.1781C6.30493 62.109 6.30689 62.1109 6.2377 62.1991C6.16503 62.2918 6.11934 62.3213 6.11934 62.2755ZM6.89816 61.4411C6.89816 61.4295 6.94197 61.3857 6.99551 61.3437C7.08375 61.2745 7.08571 61.2765 7.01652 61.3647C6.94385 61.4574 6.89816 61.4868 6.89816 61.4411ZM7.67698 60.6066C7.67698 60.5951 7.72079 60.5513 7.77433 60.5093C7.86257 60.4401 7.86454 60.442 7.79534 60.5303C7.72267 60.6229 7.67698 60.6524 7.67698 60.6066ZM8.4558 59.7722C8.4558 59.7606 8.49961 59.7168 8.55315 59.6748C8.64139 59.6056 8.64336 59.6076 8.57416 59.6958C8.50149 59.7885 8.4558 59.818 8.4558 59.7722ZM9.23462 58.9377C9.23462 58.9262 9.27843 58.8824 9.33197 58.8404C9.42021 58.7712 9.42218 58.7732 9.35298 58.8614C9.28031 58.9541 9.23462 58.9835 9.23462 58.9377ZM10.0134 58.1033C10.0134 58.0918 10.0573 58.048 10.1108 58.006C10.199 57.9368 10.201 57.9387 10.1318 58.027C10.0591 58.1196 10.0134 58.1491 10.0134 58.1033ZM10.7923 57.2689C10.7923 57.2573 10.8361 57.2135 10.8896 57.1715C10.9778 57.1023 10.9798 57.1043 10.9106 57.1925C10.8379 57.2852 10.7923 57.3147 10.7923 57.2689ZM17.8016 49.7589C17.8016 49.7474 17.8455 49.7036 17.899 49.6616C17.9872 49.5924 17.9892 49.5944 17.92 49.6826C17.8473 49.7753 17.8016 49.8047 17.8016 49.7589ZM18.5805 48.9245C18.5805 48.913 18.6243 48.8692 18.6778 48.8272C18.7661 48.758 18.768 48.7599 18.6988 48.8482C18.6262 48.9408 18.5805 48.9703 18.5805 48.9245ZM19.3593 48.0901C19.3593 48.0785 19.4031 48.0347 19.4566 47.9927C19.5449 47.9235 19.5468 47.9255 19.4777 48.0137C19.405 48.1064 19.3593 48.1359 19.3593 48.0901ZM20.1381 47.2556C20.1381 47.2441 20.1819 47.2003 20.2355 47.1583C20.3237 47.0891 20.3257 47.0911 20.2565 47.1793C20.1838 47.2719 20.1381 47.3014 20.1381 47.2556ZM20.9169 46.4212C20.9169 46.4096 20.9607 46.3658 21.0143 46.3238C21.1025 46.2547 21.1045 46.2566 21.0353 46.3449C20.9626 46.4375 20.9169 46.467 20.9169 46.4212ZM21.6958 45.5868C21.6958 45.5752 21.7396 45.5314 21.7931 45.4894C21.8813 45.4202 21.8833 45.4222 21.8141 45.5104C21.7414 45.6031 21.6958 45.6325 21.6958 45.5868ZM22.4746 44.7523C22.4746 44.7408 22.5184 44.697 22.5719 44.655C22.6602 44.5858 22.6621 44.5877 22.5929 44.676C22.5203 44.7686 22.4746 44.7981 22.4746 44.7523ZM32.6549 33.849C32.6549 33.8375 32.6987 33.7937 32.7522 33.7517C32.8405 33.6825 32.8424 33.6844 32.7732 33.7727C32.7006 33.8653 32.6549 33.8948 32.6549 33.849ZM33.4337 33.0146C33.4337 33.003 33.4775 32.9592 33.531 32.9172C33.6193 32.848 33.6212 32.85 33.5521 32.9382C33.4794 33.0309 33.4337 33.0604 33.4337 33.0146ZM34.2125 32.1802C34.2125 32.1686 34.2563 32.1248 34.3099 32.0828C34.3981 32.0136 34.4001 32.0156 34.3309 32.1038C34.2582 32.1965 34.2125 32.2259 34.2125 32.1802ZM18.7652 31.7701C19.6164 31.7614 20.9933 31.7614 21.8249 31.7701C22.6564 31.7787 21.96 31.7858 20.2772 31.7858C18.5944 31.7858 17.914 31.7787 18.7652 31.7701ZM41.2219 24.6702C41.2219 24.6587 41.2657 24.6149 41.3192 24.5729C41.4075 24.5037 41.4095 24.5056 41.3403 24.5939C41.2676 24.6865 41.2219 24.716 41.2219 24.6702ZM42.0007 23.8358C42.0007 23.8242 42.0445 23.7804 42.0981 23.7384C42.1863 23.6692 42.1883 23.6712 42.1191 23.7594C42.0464 23.8521 42.0007 23.8816 42.0007 23.8358ZM42.7795 23.0013C42.7795 22.9898 42.8233 22.946 42.8769 22.904C42.9651 22.8348 42.9671 22.8368 42.8979 22.925C42.8252 23.0177 42.7795 23.0471 42.7795 23.0013ZM1.46423 22.4244C2.28484 22.4157 3.61162 22.4157 4.41263 22.4244C5.21363 22.4331 4.54223 22.4402 2.92061 22.4402C1.29899 22.4402 0.643623 22.433 1.46423 22.4244ZM43.5584 22.1669C43.5584 22.1554 43.6022 22.1116 43.6557 22.0696C43.7439 22.0004 43.7459 22.0023 43.6767 22.0906C43.604 22.1832 43.5584 22.2127 43.5584 22.1669ZM44.3372 21.3325C44.3372 21.3209 44.381 21.2771 44.4345 21.2351C44.5228 21.1659 44.5247 21.1679 44.4555 21.2561C44.3829 21.3488 44.3372 21.3783 44.3372 21.3325ZM45.116 20.498C45.116 20.4865 45.1598 20.4427 45.2134 20.4007C45.3016 20.3315 45.3036 20.3335 45.2344 20.4217C45.1617 20.5144 45.116 20.5438 45.116 20.498ZM45.8948 19.6636C45.8948 19.6521 45.9386 19.6082 45.9922 19.5663C46.0804 19.4971 46.0824 19.499 46.0132 19.5873C45.9405 19.6799 45.8948 19.7094 45.8948 19.6636ZM46.6736 18.8292C46.6736 18.8176 46.7174 18.7738 46.771 18.7318C46.8592 18.6626 46.8612 18.6646 46.792 18.7528C46.7193 18.8455 46.6736 18.875 46.6736 18.8292ZM52.9042 12.1537C52.9042 12.1421 52.948 12.0983 53.0016 12.0563C53.0898 11.9871 53.0918 11.9891 53.0226 12.0773C52.9499 12.17 52.9042 12.1995 52.9042 12.1537ZM53.683 11.3192C53.683 11.3077 53.7268 11.2639 53.7804 11.2219C53.8686 11.1527 53.8706 11.1547 53.8014 11.2429C53.7287 11.3356 53.683 11.365 53.683 11.3192ZM54.4618 10.4848C54.4618 10.4732 54.5057 10.4294 54.5592 10.3874C54.6474 10.3183 54.6494 10.3202 54.5802 10.4085C54.5075 10.5011 54.4618 10.5306 54.4618 10.4848ZM55.2407 9.65036C55.2407 9.63881 55.2845 9.595 55.338 9.55301C55.4263 9.48382 55.4282 9.48578 55.359 9.57402C55.2864 9.66668 55.2407 9.69615 55.2407 9.65036ZM56.0195 8.81593C56.0195 8.80438 56.0633 8.76057 56.1168 8.71858C56.2051 8.64938 56.207 8.65135 56.1379 8.73958C56.0652 8.83224 56.0195 8.86171 56.0195 8.81593ZM56.7983 7.98149C56.7983 7.96994 56.8421 7.92613 56.8957 7.88414C56.9839 7.81494 56.9859 7.81691 56.9167 7.90514C56.844 7.99781 56.7983 8.02727 56.7983 7.98149ZM57.5771 7.14705C57.5771 7.1355 57.6209 7.09169 57.6745 7.0497C57.7627 6.98051 57.7647 6.98248 57.6955 7.07071C57.6228 7.16337 57.5771 7.19284 57.5771 7.14705Z" fill="#D0D0D0"/>
<path d="M6.28619 62.1086C6.28619 62.097 6.33 62.0532 6.38355 62.0112C6.47178 61.9421 6.47375 61.944 6.40456 62.0322C6.33188 62.1249 6.28619 62.1544 6.28619 62.1086ZM7.06501 61.2742C7.06501 61.2626 7.10882 61.2188 7.16237 61.1768C7.2506 61.1076 7.25257 61.1096 7.18338 61.1978C7.1107 61.2905 7.06501 61.3199 7.06501 61.2742ZM7.84384 60.4397C7.84384 60.4282 7.88764 60.3844 7.94119 60.3424C8.02942 60.2732 8.03139 60.2751 7.9622 60.3634C7.88952 60.456 7.84384 60.4855 7.84384 60.4397ZM8.62266 59.6053C8.62266 59.5937 8.66646 59.5499 8.72001 59.5079C8.80824 59.4387 8.81021 59.4407 8.74102 59.5289C8.66834 59.6216 8.62266 59.6511 8.62266 59.6053ZM9.40148 58.7708C9.40148 58.7593 9.44528 58.7155 9.49883 58.6735C9.58706 58.6043 9.58903 58.6063 9.51984 58.6945C9.44716 58.7872 9.40148 58.8166 9.40148 58.7708ZM10.1803 57.9364C10.1803 57.9249 10.2241 57.8811 10.2776 57.8391C10.3659 57.7699 10.3679 57.7718 10.2987 57.8601C10.226 57.9527 10.1803 57.9822 10.1803 57.9364ZM10.9591 57.102C10.9591 57.0904 11.0029 57.0466 11.0565 57.0046C11.1447 56.9354 11.1467 56.9374 11.0775 57.0256C11.0048 57.1183 10.9591 57.1478 10.9591 57.102ZM64.2229 50.0859C64.223 48.4949 64.2301 47.8521 64.2388 48.6573C64.2475 49.4626 64.2474 50.7644 64.2387 51.5501C64.23 52.3358 64.2229 51.6769 64.2229 50.0859ZM18.0519 49.5018C18.1073 49.4406 18.1652 49.3905 18.1805 49.3905C18.1958 49.3905 18.163 49.4406 18.1076 49.5018C18.0522 49.563 17.9944 49.613 17.9791 49.613C17.9638 49.613 17.9966 49.563 18.0519 49.5018ZM18.8308 48.6674C18.8861 48.6062 18.944 48.5561 18.9593 48.5561C18.9746 48.5561 18.9418 48.6062 18.8864 48.6674C18.831 48.7285 18.7732 48.7786 18.7579 48.7786C18.7426 48.7786 18.7754 48.7285 18.8308 48.6674ZM19.6096 47.8329C19.665 47.7717 19.7228 47.7217 19.7381 47.7217C19.7534 47.7217 19.7206 47.7717 19.6652 47.8329C19.6098 47.8941 19.552 47.9442 19.5367 47.9442C19.5214 47.9442 19.5542 47.8941 19.6096 47.8329ZM20.3884 46.9985C20.4438 46.9373 20.5016 46.8872 20.5169 46.8872C20.5322 46.8872 20.4994 46.9373 20.444 46.9985C20.3887 47.0597 20.3308 47.1097 20.3155 47.1097C20.3002 47.1097 20.333 47.0597 20.3884 46.9985ZM21.0838 46.2543C21.0838 46.2427 21.1276 46.1989 21.1811 46.1569C21.2694 46.0878 21.2713 46.0897 21.2021 46.178C21.1295 46.2706 21.0838 46.3001 21.0838 46.2543ZM21.8626 45.4199C21.8626 45.4083 21.9064 45.3645 21.96 45.3225C22.0482 45.2533 22.0502 45.2553 21.981 45.3435C21.9083 45.4362 21.8626 45.4656 21.8626 45.4199ZM22.6414 44.5854C22.6414 44.5739 22.6852 44.5301 22.7388 44.4881C22.827 44.4189 22.829 44.4208 22.7598 44.5091C22.6871 44.6017 22.6414 44.6312 22.6414 44.5854ZM23.335 40.7402C23.335 39.0268 23.342 38.3179 23.3507 39.1647C23.3593 40.0116 23.3593 41.4134 23.3507 42.28C23.3421 43.1465 23.335 42.4536 23.335 40.7402ZM29.7343 36.9852C29.7896 36.924 29.8475 36.874 29.8628 36.874C29.8781 36.874 29.8453 36.924 29.7899 36.9852C29.7345 37.0464 29.6767 37.0965 29.6614 37.0965C29.6461 37.0965 29.6789 37.0464 29.7343 36.9852ZM30.5131 36.1508C30.5685 36.0896 30.6263 36.0395 30.6416 36.0395C30.6569 36.0395 30.6241 36.0896 30.5687 36.1508C30.5133 36.212 30.4555 36.2621 30.4402 36.2621C30.4249 36.2621 30.4577 36.212 30.5131 36.1508ZM31.2919 35.3164C31.3473 35.2552 31.4051 35.2051 31.4204 35.2051C31.4357 35.2051 31.4029 35.2552 31.3475 35.3164C31.2921 35.3776 31.2343 35.4276 31.219 35.4276C31.2037 35.4276 31.2365 35.3776 31.2919 35.3164ZM32.0707 34.4819C32.1261 34.4207 32.1839 34.3707 32.1992 34.3707C32.2145 34.3707 32.1817 34.4207 32.1263 34.4819C32.071 34.5431 32.0131 34.5932 31.9978 34.5932C31.9825 34.5932 32.0153 34.5431 32.0707 34.4819ZM32.8217 33.6821C32.8217 33.6706 32.8655 33.6268 32.9191 33.5848C33.0073 33.5156 33.0093 33.5175 32.9401 33.6058C32.8674 33.6984 32.8217 33.7279 32.8217 33.6821ZM33.6005 32.8477C33.6005 32.8361 33.6444 32.7923 33.6979 32.7503C33.7861 32.6811 33.7881 32.6831 33.7189 32.7713C33.6462 32.864 33.6005 32.8935 33.6005 32.8477ZM34.3794 32.0133C34.3794 32.0017 34.4232 31.9579 34.4767 31.9159C34.565 31.8467 34.5669 31.8487 34.4977 31.9369C34.4251 32.0296 34.3794 32.059 34.3794 32.0133ZM23.3362 22.0488C23.3362 16.6945 23.3427 14.5124 23.3507 17.1996C23.3587 19.8868 23.3587 24.2676 23.3507 26.9347C23.3427 29.6018 23.3362 27.4031 23.3362 22.0488ZM41.3888 24.5033C41.3888 24.4918 41.4326 24.448 41.4861 24.406C41.5743 24.3368 41.5763 24.3387 41.5071 24.427C41.4344 24.5196 41.3888 24.5491 41.3888 24.5033ZM42.1676 23.6689C42.1676 23.6573 42.2114 23.6135 42.2649 23.5715C42.3532 23.5023 42.3551 23.5043 42.2859 23.5925C42.2133 23.6852 42.1676 23.7147 42.1676 23.6689ZM42.9464 22.8344C42.9464 22.8229 42.9902 22.7791 43.0437 22.7371C43.132 22.6679 43.1339 22.6699 43.0648 22.7581C42.9921 22.8508 42.9464 22.8802 42.9464 22.8344ZM43.7252 22C43.7252 21.9885 43.769 21.9447 43.8226 21.9027C43.9108 21.8335 43.9128 21.8354 43.8436 21.9237C43.7709 22.0163 43.7252 22.0458 43.7252 22ZM44.504 21.1656C44.504 21.154 44.5478 21.1102 44.6014 21.0682C44.6896 20.999 44.6916 21.001 44.6224 21.0892C44.5497 21.1819 44.504 21.2114 44.504 21.1656ZM45.2829 20.3311C45.2829 20.3196 45.3267 20.2758 45.3802 20.2338C45.4684 20.1646 45.4704 20.1666 45.4012 20.2548C45.3285 20.3475 45.2829 20.3769 45.2829 20.3311ZM46.0617 19.4967C46.0617 19.4852 46.1055 19.4413 46.159 19.3994C46.2473 19.3302 46.2492 19.3321 46.18 19.4204C46.1074 19.513 46.0617 19.5425 46.0617 19.4967ZM53.0711 11.9868C53.0711 11.9752 53.1149 11.9314 53.1684 11.8894C53.2566 11.8202 53.2586 11.8222 53.1894 11.9104C53.1167 12.0031 53.0711 12.0326 53.0711 11.9868ZM53.8499 11.1523C53.8499 11.1408 53.8937 11.097 53.9472 11.055C54.0355 10.9858 54.0374 10.9878 53.9682 11.076C53.8956 11.1687 53.8499 11.1981 53.8499 11.1523ZM54.6287 10.3179C54.6287 10.3063 54.6725 10.2625 54.7261 10.2205C54.8143 10.1514 54.8163 10.1533 54.7471 10.2416C54.6744 10.3342 54.6287 10.3637 54.6287 10.3179ZM55.4075 9.48346C55.4075 9.47191 55.4513 9.4281 55.5049 9.38611C55.5931 9.31692 55.5951 9.31888 55.5259 9.40712C55.4532 9.49978 55.4075 9.52925 55.4075 9.48346ZM56.1863 8.64903C56.1863 8.63747 56.2302 8.59367 56.2837 8.55167C56.3719 8.48248 56.3739 8.48445 56.3047 8.57268C56.232 8.66534 56.1863 8.69481 56.1863 8.64903ZM56.9652 7.81459C56.9652 7.80304 57.009 7.75923 57.0625 7.71724C57.1507 7.64804 57.1527 7.65001 57.0835 7.73824C57.0109 7.83091 56.9652 7.86037 56.9652 7.81459ZM57.744 6.98015C57.744 6.9686 57.7878 6.92479 57.8413 6.8828C57.9296 6.81361 57.9315 6.81557 57.8623 6.90381C57.7897 6.99647 57.744 7.02594 57.744 6.98015Z" fill="#B9B9B9"/>
<path d="M6.45312 61.9453C6.45312 61.9358 6.53448 61.8544 6.63392 61.7645L6.81472 61.6012L6.65133 61.7819C6.49903 61.9505 6.45312 61.9883 6.45312 61.9453ZM7.23195 61.1109C7.23195 61.1013 7.3133 61.02 7.41274 60.9301L7.59354 60.7667L7.43015 60.9475C7.27785 61.116 7.23195 61.1539 7.23195 61.1109ZM8.01077 60.2765C8.01077 60.2669 8.09213 60.1855 8.19156 60.0957L8.37236 59.9323L8.20898 60.1131C8.05667 60.2816 8.01077 60.3194 8.01077 60.2765ZM8.78959 59.442C8.78959 59.4325 8.87095 59.3511 8.97038 59.2612L9.15118 59.0978L8.9878 59.2786C8.83549 59.4472 8.78959 59.485 8.78959 59.442ZM9.56841 58.6076C9.56841 58.598 9.64977 58.5167 9.7492 58.4268L9.93 58.2634L9.76662 58.4442C9.61431 58.6127 9.56841 58.6506 9.56841 58.6076ZM10.3472 57.7732C10.3472 57.7636 10.4286 57.6822 10.528 57.5924L10.7088 57.429L10.5454 57.6098C10.3931 57.7783 10.3472 57.8161 10.3472 57.7732ZM11.2095 56.8449C11.2649 56.7837 11.3227 56.7336 11.338 56.7336C11.3533 56.7336 11.3205 56.7837 11.2651 56.8449C11.2097 56.9061 11.1519 56.9561 11.1366 56.9561C11.1213 56.9561 11.1541 56.9061 11.2095 56.8449ZM17.2166 44.0502C17.2166 40.5469 17.2233 39.1138 17.2314 40.8654C17.2396 42.617 17.2396 45.4833 17.2314 47.2349C17.2233 48.9866 17.2166 47.5534 17.2166 44.0502ZM17.3566 50.2632C17.3566 50.2537 17.438 50.1723 17.5374 50.0824L17.7182 49.919L17.5548 50.0998C17.4025 50.2684 17.3566 50.3062 17.3566 50.2632ZM18.3023 49.2515C18.3742 49.175 18.4455 49.1124 18.4608 49.1124C18.4761 49.1124 18.4298 49.175 18.358 49.2515C18.2861 49.328 18.2148 49.3906 18.1995 49.3906C18.1842 49.3906 18.2305 49.328 18.3023 49.2515ZM19.0811 48.4171C19.153 48.3406 19.2243 48.278 19.2396 48.278C19.2549 48.278 19.2086 48.3406 19.1368 48.4171C19.0649 48.4935 18.9936 48.5561 18.9783 48.5561C18.963 48.5561 19.0093 48.4935 19.0811 48.4171ZM19.86 47.5826C19.9318 47.5061 20.0031 47.4435 20.0184 47.4435C20.0337 47.4435 19.9875 47.5061 19.9156 47.5826C19.8437 47.6591 19.7724 47.7217 19.7571 47.7217C19.7418 47.7217 19.7881 47.6591 19.86 47.5826ZM20.6388 46.7482C20.7106 46.6717 20.782 46.6091 20.7973 46.6091C20.8126 46.6091 20.7663 46.6717 20.6944 46.7482C20.6226 46.8247 20.5512 46.8873 20.5359 46.8873C20.5206 46.8873 20.5669 46.8247 20.6388 46.7482ZM21.2507 46.091C21.2507 46.0815 21.3321 46.0001 21.4315 45.9103L21.6123 45.7469L21.4489 45.9277C21.2966 46.0962 21.2507 46.134 21.2507 46.091ZM22.0295 45.2566C22.0295 45.247 22.1109 45.1657 22.2103 45.0758L22.3911 44.9124L22.2277 45.0932C22.0754 45.2617 22.0295 45.2996 22.0295 45.2566ZM22.8084 44.4222C22.8084 44.4126 22.8897 44.3312 22.9892 44.2414L23.17 44.078L23.0066 44.2588C22.8543 44.4273 22.8084 44.4651 22.8084 44.4222ZM29.2058 37.5762C29.2058 37.5646 29.2496 37.5208 29.3032 37.4788C29.3914 37.4096 29.3934 37.4116 29.3242 37.4998C29.2515 37.5925 29.2058 37.622 29.2058 37.5762ZM29.9846 36.7349C30.0565 36.6585 30.1278 36.5959 30.1431 36.5959C30.1584 36.5959 30.1121 36.6585 30.0403 36.7349C29.9684 36.8114 29.8971 36.874 29.8818 36.874C29.8665 36.874 29.9128 36.8114 29.9846 36.7349ZM30.7635 35.9005C30.8353 35.824 30.9066 35.7614 30.9219 35.7614C30.9372 35.7614 30.8909 35.824 30.8191 35.9005C30.7472 35.977 30.6759 36.0396 30.6606 36.0396C30.6453 36.0396 30.6916 35.977 30.7635 35.9005ZM31.5423 35.0661C31.6141 34.9896 31.6854 34.927 31.7007 34.927C31.716 34.927 31.6698 34.9896 31.5979 35.0661C31.526 35.1426 31.4547 35.2051 31.4394 35.2051C31.4241 35.2051 31.4704 35.1426 31.5423 35.0661ZM32.3211 34.2316C32.393 34.1551 32.4643 34.0926 32.4796 34.0926C32.4949 34.0926 32.4486 34.1551 32.3767 34.2316C32.3049 34.3081 32.2336 34.3707 32.2183 34.3707C32.203 34.3707 32.2492 34.3081 32.3211 34.2316ZM33.0999 33.3972C33.1718 33.3207 33.2431 33.2581 33.2584 33.2581C33.2737 33.2581 33.2274 33.3207 33.1555 33.3972C33.0837 33.4737 33.0124 33.5363 32.9971 33.5363C32.9818 33.5363 33.0281 33.4737 33.0999 33.3972ZM33.8787 32.5628C33.9506 32.4863 34.0219 32.4237 34.0372 32.4237C34.0525 32.4237 34.0062 32.4863 33.9344 32.5628C33.8625 32.6393 33.7912 32.7018 33.7759 32.7018C33.7606 32.7018 33.8069 32.6393 33.8787 32.5628ZM34.6576 31.7283C34.7294 31.6518 34.8007 31.5893 34.816 31.5893C34.8313 31.5893 34.785 31.6518 34.7132 31.7283C34.6413 31.8048 34.57 31.8674 34.5547 31.8674C34.5394 31.8674 34.5857 31.8048 34.6576 31.7283ZM17.2169 22.0489C17.2169 16.6946 17.2235 14.5124 17.2314 17.1996C17.2394 19.8869 17.2394 24.2676 17.2314 26.9347C17.2235 29.6018 17.2169 27.4032 17.2169 22.0489ZM36.5668 24.3158C37.3874 24.3071 38.7142 24.3071 39.5152 24.3158C40.3162 24.3245 39.6448 24.3316 38.0232 24.3316C36.4016 24.3316 35.7462 24.3245 36.5668 24.3158ZM41.6669 24.2184C41.7388 24.1419 41.8101 24.0793 41.8254 24.0793C41.8407 24.0793 41.7944 24.1419 41.7226 24.2184C41.6507 24.2949 41.5794 24.3575 41.5641 24.3575C41.5488 24.3575 41.5951 24.2949 41.6669 24.2184ZM42.4458 23.384C42.5176 23.3075 42.5889 23.2449 42.6042 23.2449C42.6195 23.2449 42.5733 23.3075 42.5014 23.384C42.4295 23.4605 42.3582 23.523 42.3429 23.523C42.3276 23.523 42.3739 23.4605 42.4458 23.384ZM43.2246 22.5495C43.2964 22.473 43.3678 22.4105 43.383 22.4105C43.3983 22.4105 43.3521 22.473 43.2802 22.5495C43.2084 22.626 43.137 22.6886 43.1217 22.6886C43.1064 22.6886 43.1527 22.626 43.2246 22.5495ZM44.0034 21.7151C44.0753 21.6386 44.1466 21.576 44.1619 21.576C44.1772 21.576 44.1309 21.6386 44.059 21.7151C43.9872 21.7916 43.9159 21.8542 43.9006 21.8542C43.8853 21.8542 43.9315 21.7916 44.0034 21.7151ZM44.671 21.0023C44.671 20.9927 44.7523 20.9114 44.8518 20.8215L45.0326 20.6581L44.8692 20.8389C44.7169 21.0075 44.671 21.0453 44.671 21.0023ZM45.4498 20.1679C45.4498 20.1583 45.5311 20.077 45.6306 19.9871L45.8114 19.8237L45.648 20.0045C45.4957 20.173 45.4498 20.2109 45.4498 20.1679ZM46.2286 19.3334C46.2286 19.3239 46.31 19.2425 46.4094 19.1527L46.5902 18.9893L46.4268 19.1701C46.2745 19.3386 46.2286 19.3764 46.2286 19.3334ZM53.238 11.8235C53.238 11.8139 53.3193 11.7326 53.4188 11.6427L53.5996 11.4793L53.4362 11.6601C53.2839 11.8287 53.238 11.8665 53.238 11.8235ZM54.0168 10.9891C54.0168 10.9795 54.0982 10.8982 54.1976 10.8083L54.3784 10.6449L54.215 10.8257C54.0627 10.9942 54.0168 11.0321 54.0168 10.9891ZM54.7956 10.1546C54.7956 10.1451 54.877 10.0637 54.9764 9.97385L55.1572 9.81046L54.9938 9.99126C54.8415 10.1598 54.7956 10.1976 54.7956 10.1546ZM55.5745 9.32021C55.5745 9.31064 55.6558 9.22928 55.7552 9.13942L55.936 8.97603L55.7727 9.15682C55.6204 9.32535 55.5745 9.36319 55.5745 9.32021ZM56.3533 8.48577C56.3533 8.4762 56.4346 8.39484 56.5341 8.30498L56.7149 8.14159L56.5515 8.32238C56.3992 8.49091 56.3533 8.52875 56.3533 8.48577ZM57.1321 7.65134C57.1321 7.64176 57.2135 7.56041 57.3129 7.47054L57.4937 7.30715L57.3303 7.48795C57.178 7.65647 57.1321 7.69431 57.1321 7.65134ZM57.9109 6.8169C57.9109 6.80733 57.9923 6.72597 58.0917 6.63611L58.2725 6.47272L58.1091 6.65351C57.9568 6.82204 57.9109 6.85988 57.9109 6.8169Z" fill="#A3A3A3"/>
<path d="M5.84113 62.6859C5.84113 62.6553 5.88493 62.5861 5.93848 62.532C5.99202 62.478 7.22492 61.1598 8.67826 59.6027L11.3207 56.7716L11.3368 57.2254L11.353 57.6793H14.2991H17.2453L17.2461 54.0495L17.247 50.4197L20.2641 47.1879L23.2812 43.9562L23.2953 50.8177L23.3094 57.6793H26.2576H29.2058V47.6444V37.6096L32.1403 34.4647L35.0748 31.3199L35.0889 38.6034L35.103 45.8869L38.0373 45.8725L40.9715 45.8581L40.9858 41.7555L41.0001 37.6528H43.9481H46.8961V44.5508V51.4488H40.9994H35.1026V54.3972V57.3455L40.5682 57.3455C43.5743 57.3454 47.5547 57.3288 49.4134 57.3085L52.7929 57.2716V47.893V38.5145L50.8737 36.5958L48.9544 34.6772L50.8739 32.7573L52.7933 30.8373L52.7792 21.5767L52.7651 12.3161L52.9598 12.1383C53.0669 12.0405 54.3311 10.6983 55.7691 9.1555L58.3838 6.35049L58.3977 26.7858L58.4117 47.221H61.3034H64.1951L64.21 50.0998L64.2249 52.9786L61.3182 52.9637L58.4116 52.9489V57.8452V62.7415H32.1264C14.64 62.7415 5.84113 62.7229 5.84113 62.6859ZM40.9862 28.3627C40.9781 26.4964 40.9844 24.9631 41.0002 24.9555C41.0159 24.9478 42.2776 23.6023 43.8038 21.9654C45.3301 20.3285 46.6502 18.9146 46.7374 18.8234L46.8961 18.6576V25.2069V31.7561H43.9485H41.001L40.9862 28.3627ZM38.037 18.1409C39.6663 18.1327 42.3323 18.1327 43.9616 18.1409C45.5909 18.1491 44.2578 18.1558 40.9993 18.1558C37.7408 18.1558 36.4077 18.1491 38.037 18.1409Z" fill="#F5821F"/>
<path d="M23.3359 50.7813C23.3359 46.9721 23.3426 45.4138 23.3507 47.3184C23.3588 49.223 23.3588 52.3396 23.3507 54.2442C23.3426 56.1488 23.3359 54.5905 23.3359 50.7813ZM38.4029 57.3038C40.2334 57.2957 43.2124 57.2957 45.0229 57.3038C46.8334 57.3119 45.3357 57.3186 41.6947 57.3186C38.0537 57.3186 36.5724 57.3119 38.4029 57.3038ZM59.844 52.9648C60.6472 52.9561 61.9614 52.9561 62.7646 52.9648C63.5677 52.9735 62.9106 52.9806 61.3043 52.9806C59.698 52.9806 59.0408 52.9735 59.844 52.9648ZM40.9701 41.7416C40.9701 39.4774 40.977 38.5593 40.9854 39.7013C40.9938 40.8433 40.9938 42.6957 40.9854 43.8178C40.977 44.94 40.9701 44.0057 40.9701 41.7416ZM40.9692 31.7422C40.9546 31.704 40.9493 30.1707 40.9575 28.3349L40.9724 24.9972L40.9858 28.3762L40.9993 31.7552L43.9616 31.77L46.9239 31.7849L43.9599 31.7983C41.6299 31.8089 40.9901 31.7969 40.9692 31.7422ZM46.9101 18.3773C46.9107 18.2549 46.9221 18.2114 46.9354 18.2806C46.9487 18.3498 46.9482 18.45 46.9343 18.5031C46.9204 18.5563 46.9095 18.4997 46.9101 18.3773Z" fill="#767676"/>
<path d="M17.2159 54.0356C17.2159 52.0468 17.2229 51.2413 17.2314 52.2456C17.2399 53.2498 17.2399 54.877 17.2314 55.8615C17.2229 56.846 17.2159 56.0243 17.2159 54.0356ZM1.46423 16.6389C2.28484 16.6303 3.61162 16.6303 4.41262 16.639C5.21363 16.6476 4.54223 16.6547 2.92061 16.6547C1.29899 16.6547 0.643623 16.6476 1.46423 16.6389ZM12.8367 12.2999C13.6398 12.2912 14.9541 12.2912 15.7572 12.2999C16.5604 12.3086 15.9033 12.3157 14.297 12.3157C12.6906 12.3157 12.0335 12.3086 12.8367 12.2999ZM24.8288 12.2999C25.6495 12.2912 26.9762 12.2912 27.7772 12.2999C28.5782 12.3086 27.9068 12.3157 26.2852 12.3157C24.6636 12.3157 24.0082 12.3086 24.8288 12.2999ZM39.5157 12.2999C41.9581 12.2918 45.9385 12.2918 48.3608 12.2999C50.7832 12.3079 48.7848 12.3144 43.9199 12.3144C39.0551 12.3144 37.0732 12.3079 39.5157 12.2999ZM16.0678 0.00581455C24.9203 -0.00193904 39.3897 -0.0019379 48.2219 0.00581625C57.0542 0.0135698 49.8112 0.0199137 32.1264 0.0199137C14.4416 0.0199137 7.21521 0.0135687 16.0678 0.00581455Z" fill="#606060"/>
<path d="M16.0677 68.9859C24.9203 68.9781 39.3896 68.9781 48.2219 68.9859C57.0541 68.9936 49.8111 69 32.1263 69C14.4415 69 7.21514 68.9936 16.0677 68.9859ZM12.8127 57.6376C13.6333 57.6289 14.9601 57.6289 15.7611 57.6376C16.5621 57.6463 15.8907 57.6534 14.2691 57.6534C12.6475 57.6534 11.9921 57.6463 12.8127 57.6376ZM24.8288 57.6376C25.6494 57.6289 26.9762 57.6289 27.7772 57.6376C28.5782 57.6463 27.9068 57.6534 26.2852 57.6534C24.6635 57.6534 24.0082 57.6463 24.8288 57.6376ZM52.7644 47.9164C52.7644 42.7456 52.771 40.6386 52.779 43.234C52.787 45.8294 52.787 50.06 52.779 52.6353C52.771 55.2106 52.7644 53.0871 52.7644 47.9164ZM11.376 34.5098C11.376 22.3019 11.3824 17.3161 11.3902 23.4302C11.398 29.5442 11.398 39.5324 11.3902 45.6262C11.3824 51.72 11.376 46.7176 11.376 34.5098ZM46.9231 44.5508C46.9231 40.7416 46.9297 39.1833 46.9378 41.0879C46.9459 42.9925 46.9459 46.1091 46.9378 48.0137C46.9297 49.9183 46.9231 48.36 46.9231 44.5508ZM59.844 47.1793C60.6471 47.1706 61.9614 47.1706 62.7646 47.1793C63.5677 47.188 62.9106 47.1951 61.3043 47.1951C59.698 47.1951 59.0408 47.188 59.844 47.1793ZM36.5667 45.8442C37.3873 45.8355 38.7141 45.8356 39.5151 45.8442C40.3161 45.8529 39.6447 45.86 38.0231 45.86C36.4015 45.86 35.7461 45.8529 36.5667 45.8442ZM50.8177 36.5819L48.9266 34.6766L50.8319 36.5677C51.8799 37.6078 52.7373 38.4652 52.7373 38.473C52.7373 38.5123 52.5753 38.3527 50.8177 36.5819ZM46.923 25.2197C46.923 21.5788 46.9297 20.0975 46.9378 21.928C46.946 23.7584 46.9459 26.7374 46.9378 28.5478C46.9297 30.3583 46.923 28.8606 46.923 25.2197ZM52.7644 21.6038C52.7644 16.4943 52.771 14.4122 52.779 16.9771C52.787 19.5419 52.787 23.7224 52.779 26.2671C52.771 28.8118 52.7644 26.7133 52.7644 21.6038Z" fill="#494949"/>
<path d="M0 45.719V22.4661H2.92058H5.84115V42.6038V62.7415H32.1264H58.4115V57.874V53.0065H61.3321H64.2527V60.9892V68.972H32.1264H0V45.719ZM11.3675 56.9144C11.3874 56.5243 11.4038 46.3358 11.4039 34.2734V12.3416H14.2967H17.1895V22.0767V31.8118H20.2769H23.3644V22.0767V12.3416H26.285H29.2056V34.9826V57.6237H26.285H23.3644V47.6382V37.6528H20.2769H17.1895V47.6382V57.6237H14.2603H11.3311L11.3675 56.9144ZM35.1026 54.3694V51.4488H41.0272H46.9518V44.5508V37.6528H43.9477H40.9437V41.7416V45.8303H38.0231H35.1026V35.0939V24.3575H38.0231H40.9437V28.0846V31.8118H43.9477H46.9518V24.9694V18.127H41.0272H35.1026V15.2343V12.3416H43.9199H52.7373V21.6174V30.8933L50.8323 32.7989L48.9272 34.7045L50.8323 36.6101L52.7373 38.5157V47.9028V57.2899H43.9199H35.1026V54.3694ZM58.4115 26.7217V6.27801H32.1264H5.84115V11.4515V16.625H2.92058H0V8.33628V0.0475464H32.1264H64.2527V23.6065V47.1654H61.3321H58.4115V26.7217Z" fill="#231F20"/>
</svg>
