<svg width="179" height="48" viewBox="0 0 179 48" fill="none" xmlns="http://www.w3.org/2000/svg">
<path d="M0 25.6316L9.41403e-06 0H179C179 0 156.625 18.4022 135.566 31.7013C114.507 45.0003 90.8162 49.9488 63.8345 47.3199C36.8529 44.6911 0 25.6316 0 25.6316Z" fill="#FF7900"/>
<path fill-rule="evenodd" clip-rule="evenodd" d="M92.8722 15.0092C93.4572 10.5829 97.1966 8 101.108 8C103.712 8 105.639 9.16062 106.797 10.7764L104.205 13.0862C103.425 12.0963 102.404 11.3567 100.902 11.3567C98.8254 11.3567 96.8984 12.7676 96.5887 15.0888C96.2904 17.3418 97.7013 18.8893 99.8233 18.8893C101.257 18.8893 102.599 18.1611 103.7 17.0573L105.822 19.4354C104.343 21.0626 102.003 22.3028 99.3186 22.3028C95.1663 22.3028 92.2872 19.3558 92.8722 15.0092ZM107.153 19.4468L114.735 11.425H108.621L109.103 8.23896H120L119.621 10.9926L112.234 18.912H118.601L118.13 22.098H106.797L107.153 19.4468ZM89.6719 18.7414C88.6511 18.7414 87.7908 19.4696 87.6531 20.505C87.5155 21.5519 88.2152 22.3028 89.2475 22.3028C90.234 22.3028 91.0828 21.6429 91.2549 20.6302C91.4499 19.5834 90.7731 18.7414 89.6719 18.7414ZM40.9108 18.7414C43.3999 18.7414 44.6731 16.9436 44.9369 15.032C45.1778 13.2341 44.4781 11.607 42.3331 11.607H40.0046L38.9264 18.7527H40.9108V18.7414ZM36.9764 8.23896H42.2872C46.864 8.23896 49.1466 10.9926 48.5616 15.305C47.9766 19.5037 45.1778 22.0867 40.7616 22.0867H34.9002L36.9764 8.23896ZM56.1666 14.4516H54.3198L54.7672 11.4477H57.0383C58.0133 11.4477 58.4148 12.0849 58.3001 12.8928C58.1739 13.7234 57.5889 14.4516 56.1666 14.4516ZM61.0415 22.098L58.8162 17.0346C60.8236 16.2494 61.7298 14.5996 61.9248 12.8814C62.2345 10.5147 60.9268 8.25032 57.3365 8.25032H51.7045L49.6284 22.098H53.1613L53.838 17.5011H55.2145L56.9924 22.098H61.0415ZM85.8637 11.4477H83.8449L83.3746 14.5996H84.8429C86.3684 14.5996 87.114 13.9851 87.2402 12.9724C87.3549 12.0622 86.8502 11.4477 85.8637 11.4477ZM90.8764 13.1204C90.5322 15.8057 88.7428 17.7514 84.8429 17.7514H82.8929L82.2276 22.098H78.6947L80.7708 8.25034H86.139C90.0619 8.23896 91.1975 10.6171 90.8764 13.1204ZM28.8897 16.5226H26.2285L28.19 12.4149L28.8897 16.5226ZM24.875 19.5606H29.3141L29.727 22.0867H33.3402L30.4496 8.23896H27.1576L20 22.0867H23.6476L24.875 19.5606ZM74.0491 15.1002C74.3703 12.9952 73.0856 11.4591 71.0438 11.4591C68.9677 11.4591 67.0406 13.0293 66.7309 15.2481C66.4327 17.3532 67.7174 18.8438 69.7362 18.8438C71.7665 18.8551 73.7279 17.3304 74.0491 15.1002ZM63.0948 15.0319C63.7142 10.9129 67.3274 8 71.4109 8C75.7582 8 78.2932 11.3225 77.7082 15.2595C77.1003 19.2762 73.6132 22.3256 69.3921 22.3256C65.0562 22.3142 62.5098 19.06 63.0948 15.0319ZM53.5398 33.8748L54.5607 27.0591H53.5054L52.7942 31.7129L49.4907 27.0591H48.9401L47.9192 33.8748H48.9745L49.6857 29.2551L52.9204 33.8748H53.5398ZM59.2865 31.3715C59.4242 30.4954 58.8965 29.7103 57.933 29.7103C57.0268 29.7103 56.3157 30.3702 56.1321 31.2122C55.9486 32.1225 56.396 33.0556 57.4512 33.0556C58.4148 33.0556 59.1604 32.2818 59.2865 31.3715ZM60.6286 28.9024L60.6268 28.9138H59.6421L59.5274 29.6306C59.1718 29.13 58.6327 28.7886 57.8757 28.7886C56.4648 28.7886 55.2833 29.7672 55.0654 31.235C54.8474 32.6915 55.6274 34 57.176 34C57.9101 34 58.5295 33.67 58.9998 33.1694L58.8965 33.8748H59.8715L60.6268 28.9138H60.6286V28.9024ZM65.7215 33.8634L68.6694 28.9024H67.5338L65.5724 32.4525L64.6662 28.9024H63.5192L64.9759 33.8634H65.7215ZM68.6694 33.8748L69.7247 26.877H70.7456L69.7018 33.8748H68.6694ZM72.7644 28.9024H71.7665L71.0209 33.8748H72.0417L72.4318 31.3033C72.5694 30.3475 73.2003 29.7217 74.0032 29.7217C74.6914 29.7217 75.1044 30.1768 74.9553 31.1212L74.5423 33.8748H75.5747L75.9991 30.9733C76.2285 29.4258 75.3567 28.7773 74.3473 28.7773C73.6476 28.7773 73.0282 29.0959 72.6612 29.6079L72.7644 28.9024ZM79.6008 28.1173L78.5341 26.5698H79.6008L80.117 27.3891L80.8855 26.5698H81.9293L80.3349 28.1173H79.6008ZM78.0408 30.9505H80.9543C81.0117 30.154 80.507 29.6648 79.7614 29.6648C78.9814 29.6534 78.3161 30.1654 78.0408 30.9505ZM81.9293 31.3374C81.9064 31.5081 81.872 31.656 81.8376 31.7812H77.9147C77.9376 32.4866 78.3276 33.0783 79.337 33.0783C79.9335 33.0783 80.6446 32.8508 81.1264 32.5208L81.4935 33.2945C80.9773 33.6586 80.1285 33.9772 79.2567 33.9772C77.3755 33.9772 76.7447 32.6232 76.9282 31.2919C77.1461 29.8013 78.3161 28.7772 79.8302 28.7772C81.2526 28.7772 82.1702 29.733 81.9293 31.3374ZM88.7199 33.8748L88.8575 33.0101H86.0358L89.2934 29.551L89.3737 28.9138H85.4049L85.2787 29.7786H87.8711L84.602 33.2035L84.5102 33.8748H88.7199ZM93.3654 28.1173H92.4478L93.2507 26.547H94.4781L93.3654 28.1173ZM93.916 31.3716C94.0537 30.4954 93.526 29.7103 92.5625 29.7103C91.6563 29.7103 90.9452 30.3702 90.7616 31.2123C90.5781 32.1225 91.0255 33.0556 92.0807 33.0556C93.0443 33.0556 93.7784 32.2818 93.916 31.3716ZM95.2581 28.9024L95.2563 28.9138H94.2716L94.1569 29.6306C93.8013 29.13 93.2622 28.7886 92.5051 28.7886C91.0943 28.7886 89.9128 29.7672 89.6949 31.235C89.4769 32.6915 90.2569 34 91.8055 34C92.5396 34 93.159 33.67 93.6293 33.1694L93.526 33.8748H94.501L95.2563 28.9138H95.2581V28.9024ZM98.5501 27.3891L98.034 26.5698H96.9557L98.0225 28.1173H98.7681L100.362 26.5698H99.3186L98.5501 27.3891ZM99.6742 33.8748L99.8004 33.0101H96.9787L100.236 29.551L100.317 28.9138H96.3478L96.2216 29.7786H98.8139L95.5563 33.2035L95.4646 33.8748H99.6742ZM101.418 27.5256C101.487 27.1501 101.808 26.877 102.186 26.877C102.588 26.877 102.852 27.1842 102.794 27.5825C102.737 27.958 102.404 28.2425 102.037 28.2425C101.636 28.2425 101.372 27.9352 101.418 27.5256ZM100.649 33.8748L101.406 28.9024H102.427L101.67 33.8748H100.649ZM105.249 33.067C104.71 33.067 104.549 32.7029 104.63 32.1339L104.985 29.7786H106.706L106.843 28.9138H105.1L105.364 27.1501H104.354L104.09 28.9138H103.23L103.092 29.7786H103.953L103.609 32.0657C103.437 33.249 103.85 34 104.985 34C105.455 34 105.994 33.8635 106.43 33.6018L106.167 32.7825C105.88 32.9418 105.57 33.067 105.249 33.067ZM109.677 30.9733L111.638 33.8748H110.33L108.862 31.6105L108.369 32.0088L108.082 33.8748H107.061L108.117 26.877H109.137L108.541 30.814L110.938 28.9024H112.303L109.677 30.9733ZM115.446 26.8429C115.699 26.8429 115.894 27.0363 115.859 27.3094C115.813 27.6053 115.549 27.8101 115.274 27.8215C115.01 27.8215 114.815 27.6053 114.861 27.3322C114.896 27.0591 115.159 26.8429 115.446 26.8429ZM115.515 26.2398C114.884 26.2398 114.311 26.7177 114.23 27.3208C114.139 27.9352 114.563 28.4018 115.205 28.3904C115.825 28.3904 116.41 27.9239 116.49 27.3322C116.582 26.7177 116.157 26.2398 115.515 26.2398ZM112.934 28.9024L112.498 31.7129C112.257 33.2035 113.072 33.9886 114.368 33.9886C115.687 33.9886 116.662 33.249 116.891 31.7129L117.316 28.9024H116.295L115.871 31.656C115.744 32.5436 115.228 33.0442 114.471 33.0442C113.771 33.0442 113.393 32.5777 113.519 31.7584L113.955 28.9024H112.934Z" fill="white"/>
</svg>
