<?xml version="1.0" encoding="utf-8"?>
<!-- Generator: Adobe Illustrator 15.0.0, SVG Export Plug-In . SVG Version: 6.00 Build 0)  -->
<!DOCTYPE svg PUBLIC "-//W3C//DTD SVG 1.1//EN" "http://www.w3.org/Graphics/SVG/1.1/DTD/svg11.dtd">
<svg version="1.1" id="Layer_1" xmlns="http://www.w3.org/2000/svg" xmlns:xlink="http://www.w3.org/1999/xlink" x="0px" y="0px"
	 width="505.486px" height="388.057px" viewBox="0 0 505.486 388.057" enable-background="new 0 0 505.486 388.057"
	 xml:space="preserve">
<g>
	<g>
		<path fill="#524031" d="M131.484,344.23c0.161,1.448,0.322,3.219,0.322,4.506c0.161,0.966,0,2.575-0.322,3.54
			c0.161,0,0.322,0,0.322,0c0.483,0,0.805-1.126,1.126-2.092c0.805-2.574,2.092-3.219,4.345-3.701
			c2.897-0.644,7.402-0.644,14.161-1.287c-7.885,10.942-15.609,21.725-19.954,28.805v0.322c2.253,0,4.828,0,6.919,0
			c4.345,0,8.851,0,19.311,0c0-3.058,0.805-6.759,1.609-9.334c-0.322-0.161-0.322-0.161-0.644-0.161c-0.482,0-0.644,0-0.804,0.483
			c-3.862,7.08-5.311,6.437-20.115,7.885c3.057-4.345,10.138-14.322,20.115-28.644c0-0.161-0.161-0.322-0.483-0.322
			C152.886,344.23,143.875,344.23,131.484,344.23z"/>
		<path fill-rule="evenodd" clip-rule="evenodd" fill="#524031" d="M131.484,344.23c0.161,1.448,0.322,3.219,0.322,4.506
			c0.161,0.966,0,2.575-0.322,3.54c0.161,0,0.322,0,0.322,0c0.483,0,0.805-1.126,1.126-2.092c0.805-2.574,2.092-3.219,4.345-3.701
			c2.897-0.644,7.402-0.644,14.161-1.287c-7.885,10.942-15.609,21.725-19.954,28.805v0.322c2.253,0,4.828,0,6.919,0
			c4.345,0,8.851,0,19.311,0c0-3.058,0.805-6.759,1.609-9.334c-0.322-0.161-0.322-0.161-0.644-0.161c-0.482,0-0.644,0-0.804,0.483
			c-3.862,7.08-5.311,6.437-20.115,7.885c3.057-4.345,10.138-14.322,20.115-28.644c0-0.161-0.161-0.322-0.483-0.322
			C152.886,344.23,143.875,344.23,131.484,344.23z"/>
	</g>
	<g>
		<path fill-rule="evenodd" clip-rule="evenodd" fill="#524031" d="M176.255,374.323c11.908,0,18.828-4.667,18.667-15.127
			c-0.161-8.368-4.506-14.966-18.988-14.966c-2.414,0-12.069,0.322-14.645,0.161v0.482c2.253,0,4.023,0.322,4.989,0.645
			c-0.161,2.735-0.161,7.241,0,11.907c0,5.954,0.161,12.069,0.322,16.093c-0.965,0.161-3.54,0.644-4.988,0.644l0.161,0.322
			C164.347,374.323,173.842,374.323,176.255,374.323L176.255,374.323z M171.428,345.357c5.793,0,9.655,1.608,12.391,3.701
			c3.218,2.414,4.988,5.471,4.988,10.138c0.161,9.012-4.667,13.356-16.896,13.839c0-3.701,0-9.333-0.161-14.644
			C171.75,353.564,171.589,348.575,171.428,345.357z"/>
		<path fill-rule="evenodd" clip-rule="evenodd" fill="#524031" d="M180.12,374.139c9.525-0.953,14.945-5.673,14.803-14.943
			c-0.144-7.499-3.65-13.576-14.803-14.757v2.485c1.43,0.597,2.648,1.33,3.699,2.134c3.218,2.414,4.988,5.471,4.988,10.138
			c0.118,6.623-2.458,10.726-8.688,12.627V374.139z M176.255,374.323c1.354,0,2.643-0.062,3.864-0.184v-2.316
			c-2.247,0.685-4.968,1.084-8.209,1.212c0-3.701,0-9.333-0.161-14.644c0-4.827-0.161-9.816-0.322-13.034
			c3.567,0,6.401,0.61,8.692,1.567v-2.485c-1.291-0.137-2.683-0.209-4.186-0.209c-2.414,0-12.069,0.322-14.645,0.161v0.482
			c2.253,0,4.023,0.322,4.989,0.645c-0.161,2.735-0.161,7.241,0,11.907c0,5.954,0.161,12.069,0.322,16.093
			c-0.965,0.161-3.54,0.644-4.988,0.644l0.161,0.322C164.347,374.323,173.842,374.323,176.255,374.323z"/>
	</g>
	<g>
		<path fill-rule="evenodd" clip-rule="evenodd" fill="#524031" d="M207.623,360c1.609,2.735,8.529,10.942,11.586,14.161
			c2.736,0.161,4.506,0.161,9.333,0.161c0.322,0,0.322-0.161,0.322-0.483c-4.023,0-11.586-9.655-15.449-14.161
			c5.955-0.805,8.69-3.861,8.69-7.08c-0.161-4.185-3.701-8.368-11.265-8.368c-1.609,0-4.184,0-7.402,0c-1.931,0-4.505,0-7.885-0.16
			v0.482c2.252,0,3.862,0.321,4.828,0.644c0,3.058,0,7.725,0.161,12.229c0,5.794,0.161,12.069,0.321,15.932
			c-0.965,0.161-3.54,0.644-4.667,0.644l0.161,0.322c2.414,0,4.988-0.161,7.563-0.161c2.414,0,4.828,0.161,7.402,0.161V374
			c-2.575,0-4.184-0.482-5.311-0.644c0.161-3.058,0.161-9.816,0-13.518C206.496,359.839,207.14,359.839,207.623,360L207.623,360z
			 M206.013,359.196c0-3.701-0.161-10.782-0.322-14.161c0.483,0,0.805,0,1.126,0c6.115,0,9.495,4.023,9.495,7.563
			c0,3.219-2.736,6.598-8.529,6.598C207.14,359.196,206.657,359.196,206.013,359.196z"/>
		<path fill-rule="evenodd" clip-rule="evenodd" fill="#524031" d="M211.002,364.6c2.716,3.403,6.251,7.503,8.207,9.562
			c2.736,0.161,4.506,0.161,9.333,0.161c0.322,0,0.322-0.161,0.322-0.483c-4.023,0-11.586-9.655-15.449-14.161
			c5.955-0.805,8.69-3.861,8.69-7.08c-0.16-4.154-3.651-8.308-11.104-8.366v1.533c3.453,1.319,5.311,4.208,5.311,6.833
			c0,2.549-1.717,5.199-5.311,6.191V364.6L211.002,364.6z M211.002,374.322v-0.324c0.105,0.002,0.212,0.003,0.322,0.003v0.322
			L211.002,374.322z M207.623,360c0.58,0.986,1.85,2.682,3.379,4.6v-5.811c-0.943,0.26-2.014,0.406-3.218,0.406
			c-0.644,0-1.126,0-1.771,0c0-3.701-0.161-10.782-0.322-14.161c0.483,0,0.805,0,1.126,0c1.582,0,2.979,0.27,4.184,0.73v-1.533
			l-0.161-0.002c-1.609,0-4.184,0-7.402,0c-1.931,0-4.505,0-7.885-0.16v0.482c2.252,0,3.862,0.321,4.828,0.644
			c0,3.058,0,7.725,0.161,12.229c0,5.794,0.161,12.069,0.321,15.932c-0.965,0.161-3.54,0.644-4.667,0.644l0.161,0.322
			c2.414,0,4.988-0.161,7.563-0.161c2.313,0,4.626,0.147,7.081,0.16v-0.324c-2.388-0.037-3.91-0.486-4.989-0.641
			c0.161-3.058,0.161-9.816,0-13.518C206.496,359.839,207.14,359.839,207.623,360z"/>
	</g>
	<g>
		<path fill-rule="evenodd" clip-rule="evenodd" fill="#524031" d="M255.25,373.196c-3.219-9.012-9.334-21.724-13.035-30.253
			c-0.161-0.322-0.644-0.482-0.965-0.482c0,0-0.483,0.16-0.644,0.482c-0.965,2.253-9.172,21.885-13.356,30.092
			c-0.644,0.322-2.414,0.966-2.896,0.966v0.322c1.77,0,4.184-0.161,6.437-0.161c1.609,0,2.414,0,4.828,0.161V374
			c-1.126,0-3.379-0.644-4.667-1.126c0.644-2.736,1.931-7.725,2.897-10.139c1.609,0.161,3.54,0.161,4.988,0.161
			c2.092,0,4.345,0,6.437-0.322c0.965,1.449,3.54,8.047,4.505,10.782c-0.482,0.161-3.057,0.644-4.023,0.644v0.322
			c2.575,0,6.759-0.161,9.012-0.161c1.609,0,2.414,0,4.345,0.161V374C258.468,374,256.215,373.357,255.25,373.196L255.25,373.196z
			 M244.146,359.518c-1.448,0-2.736,0.16-4.184,0.16c-1.609,0-3.218-0.16-4.667-0.16c1.287-3.862,2.896-8.046,4.345-11.908
			C240.767,351.311,242.537,355.977,244.146,359.518z"/>
		<path fill-rule="evenodd" clip-rule="evenodd" fill="#524031" d="M255.25,373.196c-3.219-9.012-9.334-21.724-13.035-30.253
			c-0.161-0.322-0.644-0.482-0.965-0.482c0,0-0.483,0.16-0.644,0.482c-0.145,0.338-0.453,1.067-0.885,2.089v2.84
			c1.129,3.658,2.854,8.188,4.425,11.646c-1.448,0-2.736,0.16-4.184,0.16l-0.241-0.001v3.219c1.833-0.005,3.752-0.044,5.552-0.321
			c0.965,1.449,3.54,8.047,4.505,10.782c-0.482,0.161-3.057,0.644-4.023,0.644v0.322c2.575,0,6.759-0.161,9.012-0.161
			c1.609,0,2.414,0,4.345,0.161V374C258.468,374,256.215,373.357,255.25,373.196z M239.721,345.032
			c-2.451,5.794-8.915,21.026-12.472,28.003c-0.644,0.322-2.414,0.966-2.896,0.966v0.322c1.77,0,4.184-0.161,6.437-0.161
			c1.609,0,2.414,0,4.828,0.161V374c-1.126,0-3.379-0.644-4.667-1.126c0.644-2.736,1.931-7.725,2.897-10.139
			c1.609,0.161,3.54,0.161,4.988,0.161l0.885-0.001v-3.219c-1.528-0.015-3.049-0.159-4.425-0.159
			c1.287-3.862,2.896-8.046,4.345-11.908l0.081,0.262V345.032z"/>
	</g>
	<g>
		<path fill-rule="evenodd" clip-rule="evenodd" fill="#524031" d="M271.342,370.138c-1.771-5.954-8.529-21.08-10.139-25.104
			c0.644-0.161,3.058-0.482,4.185-0.482v-0.482c-2.575,0.16-6.759,0.16-9.012,0.16c-1.609,0-2.414,0-4.506-0.16v0.482
			c0.805,0,3.058,0.644,4.023,0.805c3.218,8.851,9.333,21.08,13.034,29.609c0,0.16,0.482,0.321,0.805,0.321
			c0.161,0,0.644,0,0.644-0.321c1.127-2.414,9.173-21.402,13.518-29.609c0.482-0.322,2.253-0.966,2.896-0.966v-0.482
			c-1.771,0.161-3.219,0.161-5.311,0.161c-1.771,0-3.701,0-6.437-0.161v0.482c1.126,0,3.379,0.644,4.666,1.127
			C279.388,349.219,274.399,362.415,271.342,370.138z"/>
		<path fill-rule="evenodd" clip-rule="evenodd" fill="#524031" d="M271.342,370.138c-1.771-5.954-8.529-21.08-10.139-25.104
			c0.644-0.161,3.058-0.482,4.185-0.482v-0.482c-2.575,0.16-6.759,0.16-9.012,0.16c-1.609,0-2.414,0-4.506-0.16v0.482
			c0.805,0,3.058,0.644,4.023,0.805c3.218,8.851,9.333,21.08,13.034,29.609c0,0.16,0.482,0.321,0.805,0.321
			c0.161,0,0.644,0,0.644-0.321c1.127-2.414,9.173-21.402,13.518-29.609c0.482-0.322,2.253-0.966,2.896-0.966v-0.482
			c-1.771,0.161-3.219,0.161-5.311,0.161c-1.771,0-3.701,0-6.437-0.161v0.482c1.126,0,3.379,0.644,4.666,1.127
			C279.388,349.219,274.399,362.415,271.342,370.138z"/>
	</g>
	<g>
		<path fill-rule="evenodd" clip-rule="evenodd" fill="#524031" d="M295.48,373.357c0.161-3.701,0-9.333,0-14.966
			c0-4.988-0.16-9.978-0.321-13.195c1.287-0.483,3.701-0.644,4.827-0.644v-0.482c-2.414,0.321-4.988,0.321-7.563,0.321
			c-2.413,0-4.988,0-7.402-0.321v0.482c2.253,0,3.862,0.321,4.828,0.644c0,3.058,0,7.563,0,12.229
			c0.161,5.954,0.321,12.069,0.321,15.932c-0.804,0.161-3.54,0.644-4.827,0.644l0.161,0.322c2.574,0,5.149-0.161,7.724-0.161
			c2.414,0,4.667,0.161,7.242,0.161V374C298.055,374,296.607,373.518,295.48,373.357L295.48,373.357z M291.135,342.621
			c0,0,0.161,0,0.322-0.16c1.448-0.805,5.149-3.219,7.241-4.667c0.482-0.322,0.644-0.644,0.644-0.805
			c0-0.482-0.805-0.805-1.771-0.805c-0.644,0-1.287,0.161-1.608,0.483c-1.127,1.448-4.023,4.505-5.15,5.471
			c-0.16,0.161-0.16,0.322-0.16,0.322C290.653,342.621,290.813,342.621,291.135,342.621z"/>
		<path fill-rule="evenodd" clip-rule="evenodd" fill="#524031" d="M295.48,373.357c0.161-3.701,0-9.333,0-14.966
			c0-4.988-0.16-9.978-0.321-13.195c1.287-0.483,3.701-0.644,4.827-0.644v-0.482c-2.414,0.321-4.988,0.321-7.563,0.321
			c-2.413,0-4.988,0-7.402-0.321v0.482c2.253,0,3.862,0.321,4.828,0.644c0,3.058,0,7.563,0,12.229
			c0.161,5.954,0.321,12.069,0.321,15.932c-0.804,0.161-3.54,0.644-4.827,0.644l0.161,0.322c2.574,0,5.149-0.161,7.724-0.161
			c2.414,0,4.667,0.161,7.242,0.161V374C298.055,374,296.607,373.518,295.48,373.357L295.48,373.357z M291.135,342.621
			c0,0,0.161,0,0.322-0.16c1.448-0.805,5.149-3.219,7.241-4.667c0.482-0.322,0.644-0.644,0.644-0.805
			c0-0.482-0.805-0.805-1.771-0.805c-0.644,0-1.287,0.161-1.608,0.483c-1.127,1.448-4.023,4.505-5.15,5.471
			c-0.16,0.161-0.16,0.322-0.16,0.322C290.653,342.621,290.813,342.621,291.135,342.621z"/>
	</g>
	<g>
		<path fill-rule="evenodd" clip-rule="evenodd" fill="#524031" d="M332.643,370.138c-1.77-5.954-8.689-21.08-10.138-25.104
			c0.644-0.161,3.058-0.482,4.022-0.482v-0.482c-2.574,0.16-6.758,0.16-9.011,0.16c-1.609,0-2.414,0-4.346-0.16v0.482
			c0.645,0,2.897,0.644,3.862,0.805c3.219,8.851,9.494,21.08,13.035,29.609c0.16,0.16,0.644,0.321,0.965,0.321
			c0.161,0,0.483,0,0.645-0.321c0.965-2.414,9.172-21.402,13.356-29.609c0.644-0.322,2.413-0.966,2.896-0.966v-0.482
			c-1.771,0.161-3.058,0.161-5.311,0.161c-1.609,0-3.701,0-6.276-0.161v0.482c1.127,0,3.38,0.644,4.506,1.127
			C340.689,349.219,335.701,362.415,332.643,370.138z"/>
		<path fill-rule="evenodd" clip-rule="evenodd" fill="#524031" d="M332.643,370.138c-1.77-5.954-8.689-21.08-10.138-25.104
			c0.644-0.161,3.058-0.482,4.022-0.482v-0.482c-2.574,0.16-6.758,0.16-9.011,0.16c-1.609,0-2.414,0-4.346-0.16v0.482
			c0.645,0,2.897,0.644,3.862,0.805c3.219,8.851,9.494,21.08,13.035,29.609c0.16,0.16,0.644,0.321,0.965,0.321
			c0.161,0,0.483,0,0.645-0.321c0.965-2.414,9.172-21.402,13.356-29.609c0.644-0.322,2.413-0.966,2.896-0.966v-0.482
			c-1.771,0.161-3.058,0.161-5.311,0.161c-1.609,0-3.701,0-6.276-0.161v0.482c1.127,0,3.38,0.644,4.506,1.127
			C340.689,349.219,335.701,362.415,332.643,370.138z"/>
	</g>
	<g>
		<path fill-rule="evenodd" clip-rule="evenodd" fill="#524031" d="M371.091,345.035c0.965-0.161,2.574-0.482,4.827-0.482v-0.482
			c-2.414,0.16-4.827,0.16-7.241,0.16s-4.988,0-7.725-0.16v0.482c1.288,0,3.862,0.321,4.828,0.482c0,3.862,0,10.138,0.161,16.092
			c0,4.506,0.16,9.012,0.16,12.069c-0.965,0.483-2.574,0.644-4.827,0.644v0.483c2.574-0.161,14.161,0.161,18.506,0.161
			c1.931,0,4.184-0.161,5.793-0.161c-0.322-2.253,0.805-7.242,1.448-9.334l-0.322-0.161c-1.77,3.862-2.896,5.633-4.827,6.598
			c-2.575,1.127-8.851,1.771-10.46,1.771c0.161-3.219,0-8.207,0-13.195C371.413,354.529,371.251,348.736,371.091,345.035z"/>
		<path fill-rule="evenodd" clip-rule="evenodd" fill="#524031" d="M371.091,345.035c0.965-0.161,2.574-0.482,4.827-0.482v-0.482
			c-2.414,0.16-4.827,0.16-7.241,0.16s-4.988,0-7.725-0.16v0.482c1.288,0,3.862,0.321,4.828,0.482c0,3.862,0,10.138,0.161,16.092
			c0,4.506,0.16,9.012,0.16,12.069c-0.965,0.483-2.574,0.644-4.827,0.644v0.483c2.574-0.161,14.161,0.161,18.506,0.161
			c1.931,0,4.184-0.161,5.793-0.161c-0.322-2.253,0.805-7.242,1.448-9.334l-0.322-0.161c-1.77,3.862-2.896,5.633-4.827,6.598
			c-2.575,1.127-8.851,1.771-10.46,1.771c0.161-3.219,0-8.207,0-13.195C371.413,354.529,371.251,348.736,371.091,345.035z"/>
	</g>
	<g>
		<path fill-rule="evenodd" clip-rule="evenodd" fill="#524031" d="M399.928,342.621c0.161,0,0.322,0,0.482-0.16
			c1.448-0.805,5.149-3.219,7.242-4.667c0.321-0.322,0.644-0.644,0.644-0.805c0-0.482-0.805-0.805-1.771-0.805
			c-0.644,0-1.287,0.161-1.609,0.483c-1.126,1.448-4.184,4.505-5.149,5.471c-0.161,0.161-0.161,0.322-0.161,0.322
			C399.606,342.621,399.767,342.621,399.928,342.621L399.928,342.621z M416.181,373.196c-3.218-9.012-9.333-21.724-13.034-30.253
			c-0.161-0.322-0.644-0.482-0.966-0.482c0,0-0.482,0.16-0.644,0.482c-0.966,2.253-9.173,21.885-13.356,30.092
			c-0.644,0.322-2.414,0.966-2.896,0.966v0.322c1.77,0,4.345-0.161,6.437-0.161c1.609,0,2.414,0,4.828,0.161V374
			c-1.127,0-3.38-0.644-4.667-1.126c0.644-2.736,2.092-7.725,2.896-10.139c1.609,0.161,3.54,0.161,4.988,0.161
			c2.092,0,4.345,0,6.438-0.322c0.965,1.449,3.54,8.047,4.666,10.782c-0.644,0.161-3.058,0.644-4.184,0.644v0.322
			c2.575,0,6.759-0.161,9.012-0.161c1.609,0,2.413,0,4.345,0.161V374C419.4,374,417.147,373.357,416.181,373.196L416.181,373.196z
			 M405.078,359.518c-1.448,0-2.574,0.16-4.184,0.16s-3.058-0.16-4.667-0.16c1.287-3.862,2.896-8.046,4.345-11.908
			C401.699,351.311,403.468,355.977,405.078,359.518z"/>
		<path fill-rule="evenodd" clip-rule="evenodd" fill="#524031" d="M403.952,340.264c1.319-0.856,2.695-1.774,3.701-2.471
			c0.321-0.322,0.644-0.644,0.644-0.805c0-0.482-0.805-0.805-1.771-0.805c-0.644,0-1.287,0.161-1.609,0.483
			c-0.244,0.313-0.58,0.704-0.965,1.132V340.264L403.952,340.264z M403.952,362.809v-3.263c0.362-0.017,0.732-0.028,1.126-0.028
			c-0.37-0.814-0.749-1.689-1.126-2.598v-12.143c3.732,8.442,9.234,20.032,12.229,28.418c0.966,0.161,3.219,0.805,3.862,0.805v0.322
			c-1.932-0.161-2.735-0.161-4.345-0.161c-2.253,0-6.437,0.161-9.012,0.161V374c1.126,0,3.54-0.482,4.184-0.644
			c-1.126-2.735-3.701-9.333-4.666-10.782C405.468,362.689,404.713,362.762,403.952,362.809z M399.928,342.621
			c0.161,0,0.322,0,0.482-0.16c0.753-0.418,2.113-1.271,3.541-2.196v-2.465c-1.391,1.545-3.429,3.583-4.185,4.339
			c-0.161,0.161-0.161,0.322-0.161,0.322C399.606,342.621,399.767,342.621,399.928,342.621L399.928,342.621z M403.952,344.778
			v12.143c-1.264-3.039-2.513-6.461-3.38-9.311c-1.448,3.862-3.058,8.046-4.345,11.908c1.609,0,3.058,0.16,4.667,0.16
			c1.171,0,2.087-0.085,3.058-0.132v3.263c-1.404,0.088-2.828,0.088-4.185,0.088c-1.448,0-3.379,0-4.988-0.161
			c-0.805,2.414-2.253,7.402-2.896,10.139c1.287,0.482,3.54,1.126,4.667,1.126v0.322c-2.414-0.161-3.219-0.161-4.828-0.161
			c-2.092,0-4.667,0.161-6.437,0.161V374c0.482,0,2.253-0.644,2.896-0.966c4.184-8.207,12.391-27.839,13.356-30.092
			c0.161-0.322,0.644-0.482,0.644-0.482c0.322,0,0.805,0.16,0.966,0.482C403.404,343.535,403.672,344.149,403.952,344.778z"/>
	</g>
	<g>
		<path fill-rule="evenodd" clip-rule="evenodd" fill="#524031" d="M428.25,358.552c1.287,0.161,4.667,0.161,8.046,0.161
			c2.735,0,5.472,0,6.92-0.161c0.16,5.632,0.16,11.265,0.321,14.805c-0.805,0.161-3.54,0.644-4.827,0.644l0.161,0.322
			c2.574,0,4.988-0.161,7.401-0.161c2.414,0,4.828,0.161,7.402,0.161V374c-2.413,0-4.022-0.482-4.988-0.644
			c0-3.701,0-9.333,0-14.966c-0.161-4.988-0.161-9.978-0.321-13.195c1.126-0.483,3.701-0.644,4.827-0.644v-0.482
			c-2.574,0.321-4.988,0.321-7.563,0.321c-2.413,0-4.827,0-7.241-0.321v0.482c2.253,0,3.862,0.321,4.828,0.644
			c0,3.058,0,7.563,0,12.229c-1.127-0.161-2.575-0.161-4.185-0.161c-4.345,0-9.172,0.161-10.942,0.161
			c0-4.666-0.161-9.172-0.161-12.229c1.127-0.483,3.541-0.644,4.828-0.644v-0.482c-2.575,0.321-4.988,0.321-7.563,0.321
			c-2.414,0-4.988,0-7.563-0.321v0.482c2.414,0,4.023,0.321,4.989,0.644c-0.161,3.058,0,7.563,0,12.229
			c0,5.954,0.16,12.069,0.321,15.932c-0.966,0.161-3.54,0.644-4.828,0.644v0.322c2.736,0,5.311-0.161,7.725-0.161
			s4.828,0.161,7.242,0.161V374c-2.254,0-3.862-0.482-4.828-0.644C428.25,369.817,428.25,364.184,428.25,358.552z"/>
		<path fill-rule="evenodd" clip-rule="evenodd" fill="#524031" d="M428.25,358.552c1.287,0.161,4.667,0.161,8.046,0.161
			c2.735,0,5.472,0,6.92-0.161c0.16,5.632,0.16,11.265,0.321,14.805c-0.805,0.161-3.54,0.644-4.827,0.644l0.161,0.322
			c2.574,0,4.988-0.161,7.401-0.161c2.414,0,4.828,0.161,7.402,0.161V374c-2.413,0-4.022-0.482-4.988-0.644
			c0-3.701,0-9.333,0-14.966c-0.161-4.988-0.161-9.978-0.321-13.195c1.126-0.483,3.701-0.644,4.827-0.644v-0.482
			c-2.574,0.321-4.988,0.321-7.563,0.321c-2.413,0-4.827,0-7.241-0.321v0.482c2.253,0,3.862,0.321,4.828,0.644
			c0,3.058,0,7.563,0,12.229c-1.127-0.161-2.575-0.161-4.185-0.161c-4.345,0-9.172,0.161-10.942,0.161
			c0-4.666-0.161-9.172-0.161-12.229c1.127-0.483,3.541-0.644,4.828-0.644v-0.482c-2.575,0.321-4.988,0.321-7.563,0.321
			c-2.414,0-4.988,0-7.563-0.321v0.482c2.414,0,4.023,0.321,4.989,0.644c-0.161,3.058,0,7.563,0,12.229
			c0,5.954,0.16,12.069,0.321,15.932c-0.966,0.161-3.54,0.644-4.828,0.644v0.322c2.736,0,5.311-0.161,7.725-0.161
			s4.828,0.161,7.242,0.161V374c-2.254,0-3.862-0.482-4.828-0.644C428.25,369.817,428.25,364.184,428.25,358.552z"/>
	</g>
	<g>
		<path fill-rule="evenodd" clip-rule="evenodd" fill="#524031" d="M470.573,370.138c-1.771-5.954-8.689-21.08-10.138-25.104
			c0.644-0.161,3.057-0.482,4.184-0.482v-0.482c-2.575,0.16-6.92,0.16-9.012,0.16c-1.771,0-2.574,0-4.506-0.16v0.482
			c0.644,0,2.896,0.644,3.862,0.805c3.219,8.851,9.494,21.08,13.034,29.609c0.161,0.16,0.644,0.321,0.966,0.321
			c0.161,0,0.482,0,0.644-0.321c0.966-2.414,9.173-21.402,13.356-29.609c0.644-0.322,2.414-0.966,2.896-0.966v-0.482
			c-1.77,0.161-3.058,0.161-5.311,0.161c-1.609,0-3.701,0-6.275-0.161v0.482c1.126,0,3.379,0.644,4.506,1.127
			C478.619,349.219,473.629,362.415,470.573,370.138z"/>
		<path fill-rule="evenodd" clip-rule="evenodd" fill="#524031" d="M470.573,370.138c-1.771-5.954-8.689-21.08-10.138-25.104
			c0.644-0.161,3.057-0.482,4.184-0.482v-0.482c-2.575,0.16-6.92,0.16-9.012,0.16c-1.771,0-2.574,0-4.506-0.16v0.482
			c0.644,0,2.896,0.644,3.862,0.805c3.219,8.851,9.494,21.08,13.034,29.609c0.161,0.16,0.644,0.321,0.966,0.321
			c0.161,0,0.482,0,0.644-0.321c0.966-2.414,9.173-21.402,13.356-29.609c0.644-0.322,2.414-0.966,2.896-0.966v-0.482
			c-1.77,0.161-3.058,0.161-5.311,0.161c-1.609,0-3.701,0-6.275-0.161v0.482c1.126,0,3.379,0.644,4.506,1.127
			C478.619,349.219,473.629,362.415,470.573,370.138z"/>
	</g>
	<g>
		<path fill-rule="evenodd" clip-rule="evenodd" fill="#524031" d="M494.71,373.357c0-3.701,0-9.333,0-14.966
			c-0.16-4.988-0.16-9.978-0.321-13.195c1.126-0.483,3.54-0.644,4.827-0.644v-0.482c-2.574,0.321-4.988,0.321-7.563,0.321
			c-2.413,0-4.988,0-7.563-0.321v0.482c2.413,0,4.022,0.321,4.988,0.644c0,3.058,0,7.563,0,12.229
			c0,5.954,0.161,12.069,0.321,15.932c-0.965,0.161-3.54,0.644-4.827,0.644v0.322c2.735,0,5.311-0.161,7.725-0.161
			c2.413,0,4.827,0.161,7.241,0.161V374C497.286,374,495.676,373.518,494.71,373.357z"/>
		<path fill-rule="evenodd" clip-rule="evenodd" fill="#524031" d="M494.71,373.357c0-3.701,0-9.333,0-14.966
			c-0.16-4.988-0.16-9.978-0.321-13.195c1.126-0.483,3.54-0.644,4.827-0.644v-0.482c-2.574,0.321-4.988,0.321-7.563,0.321
			c-2.413,0-4.988,0-7.563-0.321v0.482c2.413,0,4.022,0.321,4.988,0.644c0,3.058,0,7.563,0,12.229
			c0,5.954,0.161,12.069,0.321,15.932c-0.965,0.161-3.54,0.644-4.827,0.644v0.322c2.735,0,5.311-0.161,7.725-0.161
			c2.413,0,4.827,0.161,7.241,0.161V374C497.286,374,495.676,373.518,494.71,373.357z"/>
	</g>
</g>
<g>
	<g>
		<path fill-rule="evenodd" clip-rule="evenodd" fill="#1D1D1B" d="M262.845,170.779c9.521-6.923,13.851-16.879,9.956-21.64
			c-3.464-4.762-13.852-3.031-23.375,3.894c-9.089,6.927-13.415,16.448-9.954,21.21
			C243.368,179.004,253.753,177.705,262.845,170.779L262.845,170.779z M465.839,60.842c-14.283,38.521-48.042,88.297-48.042,88.297
			s-1.302,78.341,40.251,30.729c7.791,3.461-33.76,64.926-62.76,3.03c-3.462,3.462-19.908,28.133-38.521,44.148
			c-7.358,6.059-15.147,9.523-22.938,11.686c-9.525,3.031-17.314-1.731-21.211-7.358c-4.761-6.923-4.761-15.579-4.327-18.61
			c0-1.298,0-3.029,0-4.76v0.864c0,0-4.762,13.419-12.552,24.673c-8.657,12.117-24.671,32.459-42.849,35.49
			c-18.613,3.029-24.671-17.746-24.671-17.746c-0.433-2.165-0.867-4.761-0.867-7.356l-0.864,3.029c0,0-14.717,33.325-26.403,43.713
			c-4.329,3.463-12.119,8.656-22.94,8.656c-6.925,0-13.852-2.596-19.477-7.789c-9.088-10.389-9.954-27.701-9.954-39.387
			c0,0,0.431-10.82-1.731-15.581c-1.298-3.029-3.465-4.763-6.059-6.061c-6.061-2.598-12.986-1.731-14.717-1.298
			c-9.09,6.059-17.748,11.686-26.402,16.015c-5.627,35.49-9.957,70.115-11.254,99.549L5.748,388.057l1.298-19.478
			c7.358-4.763,28.134-14.717,40.686-31.595c11.686-15.583,15.148-37.658,17.313-47.179l6.058-32.028
			c-2.596,1.299-4.76,2.163-7.356,2.597c-41.119,12.983-46.313-27.27-20.344-37.657c7.36-1.729,14.718,3.896,9.089,8.224
			c-12.983,13.417-3.896,21.643,13.419,16.447c2.596-0.432,5.192-1.299,7.79-2.595l30.296-154.52c0,0-77.474,20.777-57.997,66.223
			l-27.267,20.773c0,0-21.21-42.849,20.775-70.982c34.192-20.342,100.416-45.879,100.416-45.879
			c-11.688,37.655-27.271,103.447-38.521,169.235c4.327-3.03,7.79-5.193,10.819-7.358c22.507-19.477,43.282-34.625,64.493-94.355
			c8.654,10.388,22.071,20.342,22.071,20.342c-15.148,28.133-36.356,51.506-58.861,69.684c4.327-0.865,32.892-6.492,34.624,28.567
			c0.867,11.686,0.433,22.939,3.463,27.7c6.06,10.821,18.179,9.523,28.133-5.193c10.39-14.715,29.432-56.701,29.432-56.701
			l30.298-22.938c0,0-9.954,34.625-9.954,48.907c0,15.581,12.552,9.522,16.015,8.225c15.581-8.656,26.402-23.806,43.713-80.938
			c1.3-4.327,2.165-9.088,3.465-13.417l-18.18,6.925c0,0,0,0,2.597-12.119c0.866-1.3,25.104-5.194,34.193-54.536l29.863-22.94
			l-14.281,57.565l13.417-5.193l-2.597,14.283l-13.85,5.196c0,0-11.686,47.174-11.686,60.593c0,0.867,0.864,9.523,2.162,12.119
			c2.165,3.896,6.494,4.329,10.388,3.463c6.494-1.298,21.209-14.715,41.551-46.745c-1.729-28.134-0.432-60.162,10.388-91.757
			c9.522-33.328,40.253-80.074,58.432-76.609C475.361,5.008,477.094,30.113,465.839,60.842L465.839,60.842z M431.214,77.722
			c-8.656,23.807-13.417,56.27-13.417,56.27s36.788-51.938,39.386-87.866c0.865-5.194,0-8.654-2.598-9.521
			C450.256,35.74,438.573,54.782,431.214,77.722z"/>
		<path fill-rule="evenodd" clip-rule="evenodd" fill="#1D1D1B" d="M494.232,17.561c-6.49,0-11.684,5.192-11.684,11.252
			c0,6.494,5.193,11.254,11.684,11.254c6.495,0,11.254-4.761,11.254-11.254C505.486,22.321,500.727,17.561,494.232,17.561
			L494.232,17.561L494.232,17.561z M494.232,19.725c5.195,0,9.092,3.894,9.092,9.088c0,5.627-3.896,9.523-9.092,9.523
			c-5.192,0-9.521-3.896-9.521-9.523C484.711,23.619,488.607,19.725,494.232,19.725L494.232,19.725L494.232,19.725z M488.607,34.007
			v-0.865c0-0.433,0-0.433,0-0.433c0.433,0,1.3,0,1.3-0.865c0-1.731,0-4.329,0-6.06c0-0.431,0-0.866-0.867-0.866
			c-0.433,0-0.433,0-0.433-0.865v-0.433l0,0c1.731,0,2.598-0.431,3.462-0.431c0.867,0,1.298,0,1.731,0
			c2.596,0,4.761,0.431,4.761,3.029c0,1.298-0.864,2.165-1.729,3.03c0.865,1.731,2.165,3.896,3.461,4.329
			c0.435,0,0.435,0.865,0,0.865c-0.865,0-1.731,0-2.596,0c-2.163-0.434-3.03-2.163-3.465-3.463
			c-0.432-0.865-0.865-1.298-1.729-0.865c0,0.433,0.434,1.298,0.434,1.731c0,0.865,0,0.865,0.864,0.865
			c0.432,0,0.432,0.433,0.432,0.866l-0.432,0.432c-0.864,0-1.731,0-2.596,0c-1.298,0-2.165,0-2.165,0S489.04,34.007,488.607,34.007
			L488.607,34.007z M495.534,26.65c0,0.433-0.436,0.865-0.867,1.298c0,0.433-1.3,0.433-2.164,0.433V26.65
			c0-0.434,0.434-0.867,0.434-1.733l0,0c0.431-0.432,0.431-0.432,0.431-0.432c1.3,0,2.167,1.298,2.167,1.731V26.65z"/>
	</g>
	
		<path fill-rule="evenodd" clip-rule="evenodd" fill="#D10A11" stroke="#D10A11" stroke-width="0.216" stroke-miterlimit="22.9256" d="
		M257.652,168.615c9.088-6.925,13.417-16.446,9.954-21.207c-3.896-4.762-14.283-3.464-23.374,3.894
		c-9.521,6.925-13.848,16.448-9.954,21.21C237.741,177.271,248.128,175.54,257.652,168.615L257.652,168.615z M460.212,59.111
		c-13.85,38.521-48.044,88.296-48.044,88.296s-0.865,78.341,40.252,30.73c7.792,3.462-33.759,64.923-62.757,3.029
		c-3.029,3.029-19.479,28.134-38.09,43.715c-7.792,6.491-15.582,9.954-22.94,12.118c-9.521,3.029-17.311-1.73-21.64-7.356
		c-4.329-6.926-4.329-15.583-4.329-18.612c0-1.298,0-3.029,0-4.76v0.865c0,0-4.327,12.985-12.552,24.671
		c-8.224,12.121-24.67,32.461-42.849,35.492c-18.179,3.029-24.238-17.746-24.238-17.746c-0.866-2.164-1.298-4.759-1.298-7.358
		l-0.434,2.6c0,0-15.15,33.757-26.837,44.145c-3.894,3.029-11.684,8.658-22.938,8.658c-6.492,0-13.85-2.598-19.044-7.791
		c-9.521-10.388-9.957-27.701-10.388-39.387c0,0,0.431-10.82-1.3-15.583c-1.298-3.029-3.894-4.761-6.49-6.059
		c-6.06-2.596-12.552-1.731-14.717-1.298c-8.656,6.061-17.746,11.686-26.402,16.013c-5.627,35.492-9.522,70.119-11.252,99.551
		L0.121,386.326l1.298-19.478c7.792-4.762,28.134-14.715,41.119-32.029c11.254-15.148,15.148-37.222,16.879-46.744l6.494-32.029
		c-2.598,0.866-5.195,1.732-7.79,2.596c-41.119,12.987-45.881-27.268-20.343-37.653c7.79-1.733,14.714,3.894,9.521,8.223
		c-13.417,13.417-4.328,21.64,13.417,16.446c2.165-0.432,4.762-1.729,7.792-3.029L98.806,88.543c0,0-77.474,20.775-57.999,66.223
		l-27.7,20.774c0,0-21.208-43.282,20.775-70.982C68.074,84.216,134.729,58.68,134.729,58.68
		c-12.119,37.655-27.7,103.443-38.521,168.8c3.896-2.598,7.79-5.194,10.388-6.925c22.94-19.477,43.282-34.625,64.492-94.357
		c8.657,10.388,22.074,20.344,22.074,20.344c-14.717,28.134-36.359,51.507-58.864,69.684c4.327-0.865,32.895-6.492,35.059,28.133
		c0.431,12.119,0.431,23.374,3.029,28.134c6.058,10.821,18.177,9.523,28.565-5.193c10.39-15.148,29.434-56.701,29.434-56.701
		l29.865-22.938c0,0-9.523,34.625-9.523,48.476c0,15.581,12.119,9.954,16.013,8.658c15.149-8.658,25.971-23.806,43.283-80.938
		c1.3-4.762,2.596-9.09,3.894-13.418l-18.608,6.923c0,0,0,0,2.595-12.551c1.299-0.866,25.537-4.76,34.193-54.536l30.299-22.507
		L347.678,124.9l13.85-4.761l-3.029,14.283l-13.85,5.194c0,0-11.255,47.178-11.255,60.595c0,0.867,0.436,9.523,1.733,11.688
		c2.162,4.327,6.492,4.759,10.386,3.896c6.494-1.733,21.209-14.717,41.985-46.747c-2.166-28.133-0.864-60.161,9.955-91.757
		c9.956-33.328,40.684-80.072,58.43-77.042C469.736,3.277,471.9,28.381,460.212,59.111L460.212,59.111z M425.586,75.557
		c-8.655,24.24-13.418,56.701-13.418,56.701s36.79-51.938,39.821-87.863c0.431-5.194-0.434-8.655-3.031-9.521
		C444.631,34.007,432.946,53.053,425.586,75.557z"/>
</g>
</svg>
