<svg width="80" height="71" viewBox="0 0 80 71" fill="none" xmlns="http://www.w3.org/2000/svg">
<g clip-path="url(#clip0_328_416)">
<path fill-rule="evenodd" clip-rule="evenodd" d="M0.639252 69.9805L31.469 16.9643L55.441 31.5086C55.4907 31.5223 33.0862 70.0046 33.0862 70.0046L0.639252 69.9805ZM20.9048 57.6254C20.9048 57.6254 22.1398 58.3731 22.7714 58.7538C21.2807 61.3973 20.148 63.4244 19.08 65.3796C16.9217 64.2293 14.2246 62.6845 9.94783 60.1495L11.3067 58.0363C11.6106 58.2594 18.2855 62.216 18.2855 62.216L20.9048 57.6254ZM27.3776 61.7836C28.1808 61.53 29.0548 62.1392 28.9979 62.9955C28.9096 64.3223 27.4887 64.3636 26.9352 63.9035C26.3404 63.4092 26.3316 62.1139 27.3776 61.7836ZM35.8936 55.388C35.9084 56.887 35.3102 58.3025 34.2421 59.2962C33.6226 59.8725 32.8067 60.1379 31.6583 60.1367C27.7175 60.1326 26.1298 55.1772 29.523 52.7445C29.523 52.7445 30.167 52.2252 30.9604 52.1514L30.602 53.492C29.6189 54.4933 29.0152 56.0976 30.0684 57.3126C30.8906 58.2236 32.2294 58.1408 33.0554 57.6238C33.7967 57.1599 34.5858 55.1974 34.5858 55.1974L35.8829 54.3079L35.8936 55.388ZM25.4743 49.5889L27.3051 50.612L23.2773 57.7749C23.2773 57.7749 21.4804 56.6954 18.9206 55.2456C16.5451 53.9002 14.457 52.7191 14.457 52.7191L18.5132 45.6011C19.0929 45.9638 19.5583 46.2238 20.1535 46.561C19.4042 47.8185 17.3827 51.4444 17.3827 51.4444L19.1825 52.4528L22.0015 47.6334L23.6941 48.5616C22.7822 50.185 21.8665 51.8064 20.9407 53.422L22.6582 54.4173L25.4743 49.5889ZM37.6316 52.4683C36.7037 52.7173 35.3817 53.2557 34.7311 53.8023C33.9301 54.4754 33.529 54.8807 33.529 54.8807L31.9094 53.9687C31.9094 53.9687 32.1841 53.1876 32.364 52.0855C32.4892 51.3188 32.4247 50.9261 32.4247 50.9261C32.4247 50.9261 32.9594 51.2646 33.5276 51.4722C34.5359 51.8407 35.3004 51.83 35.3004 51.83C35.3004 51.83 34.8202 51.7131 34.0994 51.12C32.3792 49.7043 31.9015 48.9645 31.7323 46.7459C31.7384 43.5513 34.2116 41.2314 37.3273 41.2347C41.3993 41.2389 43.8245 45.1316 42.1887 49.0377C41.5146 50.6475 39.9069 51.8578 37.6316 52.4683ZM27.3822 45.9747L30.1508 41.2561L32.022 42.2753L27.7605 49.755L25.9782 48.7642L23.5339 40.6288L20.638 45.6901L18.9951 44.7178L23.2267 37.4525L24.7429 38.326L27.3822 45.9747ZM41.8948 38.8737L46.2018 41.347L44.9035 43.6613L35.9869 38.59L37.3195 36.3242L44.685 36.1901L40.8187 29.902L42.1763 27.515C42.1763 27.515 51.3053 32.6657 51.2701 32.7149L49.9267 34.9598L45.5841 32.3537L48.5208 37.002L47.3891 38.8737L41.8948 38.8737ZM34.5094 31.0707C34.9659 31.7377 37.9304 36.0703 33.388 39.2367C32.7089 39.7101 31.4692 40.0051 30.6954 40.0178C23.6158 40.1343 22.9712 28.3324 31.9127 29.5372L31.4105 31.6258C28.4749 31.1115 27.5094 33.5767 27.4979 34.5041C27.4648 37.1748 31.1967 38.6387 33.0409 36.6784C34.8285 34.8458 33.0112 32.5709 33.0112 32.5709L34.5026 31.0607L34.5094 31.0707ZM39.4461 25.5748L41.3547 26.6414C41.3547 26.6414 39.0465 30.6403 37.96 32.4763L36.1439 31.4111L37.2431 29.4337L31.7777 26.3652L30.7041 28.2022C30.1393 27.8598 29.0085 27.2215 29.0085 27.2215L32.3466 21.5215C32.3466 21.5215 34.01 22.5415 34.0124 22.5367L33.0582 24.214C33.7168 24.6064 38.4534 27.2858 38.4534 27.2858L39.4461 25.5748Z" fill="#FF0000"/>
<path d="M36.0549 49.685C34.8224 49.2771 33.9894 47.7455 34.0492 46.5689C34.1231 45.1177 35.6256 43.6467 37.2364 43.6484C40.1619 43.6516 41.5311 47.5876 39.3306 49.1822C37.9941 50.1507 37.4655 50.1518 36.0549 49.685Z" fill="#FF0000"/>
<path d="M33.2491 14.1819C33.0455 14.1069 40.9639 1.29672 40.9639 1.29672L55.5472 27.7956L33.2491 14.1819Z" fill="#FF6600"/>
<path fill-rule="evenodd" clip-rule="evenodd" d="M35.9841 70.0136C35.9841 70.0136 57.4119 32.8473 57.6377 32.8273C57.8987 32.8043 79.236 70.0641 79.236 70.0641L35.9841 70.0136ZM66.3255 52.7991L57.9892 50.107L57.4115 56.7785L48.4571 53.2825L57.3838 38.155C57.3838 38.155 66.3676 52.8203 66.3255 52.7991Z" fill="#1C112B"/>
</g>
<defs>
<clipPath id="clip0_328_416">
<rect width="80" height="70" fill="white" transform="translate(0 0.421326)"/>
</clipPath>
</defs>
</svg>
