<svg width="64" height="64" viewBox="0 0 64 64" fill="none" xmlns="http://www.w3.org/2000/svg">
<path d="M22.4975 16C23.5584 16 24.5758 16.4214 25.3259 17.1716C26.0761 17.9217 26.4975 18.9391 26.4975 20C26.4975 21.0609 26.0761 22.0783 25.3259 22.8284C24.5758 23.5786 23.5584 24 22.4975 24C21.4366 24 20.4192 23.5786 19.6691 22.8284C18.9189 22.0783 18.4975 21.0609 18.4975 20C18.4975 18.9391 18.9189 17.9217 19.6691 17.1716C20.4192 16.4214 21.4366 16 22.4975 16ZM17.9975 46V41H16.885C16.2037 41 15.7225 40.3312 15.935 39.6812L17.8787 33.8438L16.0912 36.2062C15.4225 37.0875 14.1662 37.2563 13.2912 36.5938C12.4162 35.9312 12.2412 34.675 12.9037 33.7938L16.585 28.9375C17.985 27.0875 20.1787 26 22.4975 26C24.8162 26 27.01 27.0875 28.41 28.9375L32.0912 33.7938C32.76 34.675 32.585 35.9312 31.7037 36.5938C30.8225 37.2563 29.5662 37.0875 28.9037 36.2062L27.1162 33.8438L29.06 39.6812C29.2787 40.3312 28.7912 41 28.11 41H26.9975V46C26.9975 47.1063 26.1037 48 24.9975 48C23.8912 48 22.9975 47.1063 22.9975 46V41H21.9975V46C21.9975 47.1063 21.1037 48 19.9975 48C18.8912 48 17.9975 47.1063 17.9975 46ZM42.4975 16C43.5584 16 44.5758 16.4214 45.3259 17.1716C46.0761 17.9217 46.4975 18.9391 46.4975 20C46.4975 21.0609 46.0761 22.0783 45.3259 22.8284C44.5758 23.5786 43.5584 24 42.4975 24C41.4366 24 40.4192 23.5786 39.6691 22.8284C38.9189 22.0783 38.4975 21.0609 38.4975 20C38.4975 18.9391 38.9189 17.9217 39.6691 17.1716C40.4192 16.4214 41.4366 16 42.4975 16ZM41.9975 40V46C41.9975 47.1063 41.1037 48 39.9975 48C38.8912 48 37.9975 47.1063 37.9975 46V34.7812L37.1912 36.0625C36.6037 37 35.3662 37.275 34.435 36.6875C33.5037 36.1 33.2225 34.8625 33.81 33.9312L37.0412 28.8C38.1412 27.0563 40.06 25.9937 42.1162 25.9937H42.885C44.9475 25.9937 46.8662 27.05 47.96 28.8L51.1912 33.9375C51.7787 34.875 51.4975 36.1063 50.5662 36.6938C49.635 37.2812 48.3975 37 47.81 36.0688L46.9975 34.7812V46C46.9975 47.1063 46.1037 48 44.9975 48C43.8912 48 42.9975 47.1063 42.9975 46V40H41.9975Z" fill="#F5821F"/>
</svg>
