<svg width="64" height="64" viewBox="0 0 64 64" fill="none" xmlns="http://www.w3.org/2000/svg">
<path d="M20.3275 5C21.7411 5 23.0968 5.56155 24.0964 6.56112C25.0959 7.56069 25.6575 8.9164 25.6575 10.33C25.6575 11.7436 25.0959 13.0993 24.0964 14.0989C23.0968 15.0984 21.7411 15.66 20.3275 15.66C18.9139 15.66 17.5582 15.0984 16.5586 14.0989C15.5591 13.0993 14.9975 11.7436 14.9975 10.33C14.9975 8.9164 15.5591 7.56069 16.5586 6.56112C17.5582 5.56155 18.9139 5 20.3275 5ZM16.33 18.325H24.325C25.7386 18.325 27.0943 18.8866 28.0939 19.8861C29.0934 20.8857 29.655 22.2414 29.655 23.655V38.3125H25.6575V58.3H14.9975V38.3125H11V23.655C11 22.2414 11.5616 20.8857 12.5611 19.8861C13.5607 18.8866 14.9164 18.325 16.33 18.325ZM44.3125 5C45.7261 5 47.0818 5.56155 48.0814 6.56112C49.0809 7.56069 49.6425 8.9164 49.6425 10.33C49.6425 11.7436 49.0809 13.0993 48.0814 14.0989C47.0818 15.0984 45.7261 15.66 44.3125 15.66C42.8989 15.66 41.5432 15.0984 40.5436 14.0989C39.544 13.0993 38.9825 11.7436 38.9825 10.33C38.9825 8.9164 39.544 7.56069 40.5436 6.56112C41.5432 5.56155 42.8989 5 44.3125 5ZM40.315 18.325H48.31C49.7236 18.325 51.0793 18.8866 52.0789 19.8861C53.0784 20.8857 53.64 22.2414 53.64 23.655V38.3125H49.6425V58.3H38.9825V38.3125H34.985V23.655C34.985 22.2414 35.5465 20.8857 36.5461 19.8861C37.5457 18.8866 38.9014 18.325 40.315 18.325Z" fill="#F5821F"/>
</svg>
