<svg width="64" height="64" viewBox="0 0 64 64" fill="none" xmlns="http://www.w3.org/2000/svg">
<path d="M14.6667 58.6667V40H9.33334V24C9.33334 22.5333 9.856 21.2782 10.9013 20.2347C11.9467 19.1911 13.2018 18.6684 14.6667 18.6667H25.3333C26.8 18.6667 28.056 19.1893 29.1013 20.2347C30.1467 21.28 30.6684 22.5351 30.6667 24V40H25.3333V58.6667H14.6667ZM20 16C18.5333 16 17.2782 15.4782 16.2347 14.4347C15.1911 13.3911 14.6684 12.1351 14.6667 10.6667C14.6649 9.19822 15.1876 7.94311 16.2347 6.90133C17.2818 5.85955 18.5369 5.33689 20 5.33333C21.4631 5.32978 22.7191 5.85244 23.768 6.90133C24.8169 7.95022 25.3387 9.20533 25.3333 10.6667C25.328 12.128 24.8062 13.384 23.768 14.4347C22.7298 15.4853 21.4738 16.0071 20 16Z" fill="#F5821F"/>
<path d="M40 58.6667V42.6667H32L40.1333 22.1333C40.5778 21.0667 41.2667 20.2222 42.2 19.6C43.1333 18.9778 44.1778 18.6667 45.3333 18.6667C46.4889 18.6667 47.5333 18.9778 48.4667 19.6C49.4 20.2222 50.0889 21.0667 50.5333 22.1333L58.6667 42.6667H50.6667V58.6667H40ZM45.3333 16C43.8667 16 42.6116 15.4782 41.568 14.4347C40.5244 13.3911 40.0018 12.1351 40 10.6667C39.9982 9.19822 40.5209 7.94311 41.568 6.90133C42.6151 5.85955 43.8702 5.33689 45.3333 5.33333C46.7964 5.32978 48.0524 5.85244 49.1013 6.90133C50.1502 7.95022 50.672 9.20533 50.6667 10.6667C50.6613 12.128 50.1396 13.384 49.1013 14.4347C48.0631 15.4853 46.8071 16.0071 45.3333 16Z" fill="#F5821F"/>
</svg>
