<svg width="64" height="64" viewBox="0 0 64 64" fill="none" xmlns="http://www.w3.org/2000/svg">
<path d="M16.6667 18.6667H24.6667C26.0812 18.6667 27.4377 19.2286 28.4379 20.2288C29.4381 21.229 30 22.5855 30 24V38.6667H26V58.6667H15.3333V38.6667H11.3333V24C11.3333 22.5855 11.8952 21.229 12.8954 20.2288C13.8956 19.2286 15.2522 18.6667 16.6667 18.6667ZM40.6667 18.6667H48.6667C50.0812 18.6667 51.4377 19.2286 52.4379 20.2288C53.4381 21.229 54 22.5855 54 24V38.6667H50V58.6667H39.3333V38.6667H35.3333V24C35.3333 22.5855 35.8952 21.229 36.8954 20.2288C37.8956 19.2286 39.2522 18.6667 40.6667 18.6667Z" fill="#F5821F"/>
<path d="M24.6667 2.5C26.1667 3.5 26.6667 5 26.6667 6C26.6667 10 26.6667 14 25.6667 17.5L25.1667 14C23.6667 15 21.6667 16 20.6667 16C19.6667 16 17.6667 15 16.1667 14L15.6667 17.5C14.6667 14 14.6667 10 14.6667 6C14.6667 5 15.1667 3.5 16.6667 2.5C16.1667 4 16.1667 5.5 16.6667 6.5C18.6667 5.5 22.6667 5.5 24.6667 6.5C25.1667 5.5 25.1667 4 24.6667 2.5ZM24.6667 10.5C23.6135 11.9625 23.0417 12.2875 21.1667 13C22.2135 14 24.151 13.6719 25.1667 12.5C25.6073 11.9906 25.3792 11.1062 24.6667 10.5ZM16.6667 10.5C15.9542 11.1062 15.726 11.9906 16.1667 12.5C17.1823 13.6719 19.1198 14 20.1667 13C18.2917 12.2875 17.7198 11.9625 16.6667 10.5Z" fill="#F5821F"/>
<path d="M44.6834 6.66669C33.6184 6.66669 35.7441 16.6667 40.7219 16.6667C41.7194 16.6667 42.6586 16.1279 43.2574 15.212L43.9006 14.2279C44.2921 13.6292 45.0749 13.6292 45.4664 14.2279L46.1096 15.212C46.7081 16.1279 47.6474 16.6667 48.6449 16.6667C53.3914 16.6667 55.9106 6.66669 44.6834 6.66669ZM41.2666 13.0302C40.2401 13.0302 39.5726 12.362 39.2646 11.9612C39.1339 11.7912 39.1339 11.5422 39.2646 11.3719C39.5726 10.9709 40.2399 10.3029 41.2666 10.3029C42.2934 10.3029 42.9606 10.9711 43.2686 11.3719C43.3994 11.5419 43.3994 11.7909 43.2686 11.9612C42.9606 12.3623 42.2931 13.0302 41.2666 13.0302ZM48.0666 13.0302C47.0401 13.0302 46.3726 12.362 46.0646 11.9612C45.9339 11.7912 45.9339 11.5422 46.0646 11.3719C46.3726 10.9709 47.0399 10.3029 48.0666 10.3029C49.0934 10.3029 49.7606 10.9711 50.0686 11.3719C50.1994 11.5419 50.1994 11.7909 50.0686 11.9612C49.7606 12.3623 49.0931 13.0302 48.0666 13.0302Z" fill="#F5821F"/>
</svg>
