<svg width="64" height="64" viewBox="0 0 64 64" fill="none" xmlns="http://www.w3.org/2000/svg">
<path d="M20 5.33331C21.4145 5.33331 22.771 5.89522 23.7712 6.89541C24.7714 7.8956 25.3333 9.25216 25.3333 10.6666C25.3333 12.0811 24.7714 13.4377 23.7712 14.4379C22.771 15.4381 21.4145 16 20 16C18.5855 16 17.229 15.4381 16.2288 14.4379C15.2286 13.4377 14.6667 12.0811 14.6667 10.6666C14.6667 9.25216 15.2286 7.8956 16.2288 6.89541C17.229 5.89522 18.5855 5.33331 20 5.33331ZM16 58.6667V42.6666H8L14.9333 22.4C15.7333 20.2666 17.6 18.6666 20 18.6666C22.4 18.6666 24.5333 20.2666 25.0667 22.4L32 42.6666L38.9333 22.4C39.7333 20.2666 41.6 18.6666 44 18.6666C46.4 18.6666 48.5333 20.2666 49.0667 22.4L56 42.6666H48V58.6667H40V42.6666H24V58.6667H16ZM44 5.33331C45.4145 5.33331 46.771 5.89522 47.7712 6.89541C48.7714 7.8956 49.3333 9.25216 49.3333 10.6666C49.3333 12.0811 48.7714 13.4377 47.7712 14.4379C46.771 15.4381 45.4145 16 44 16C42.5855 16 41.229 15.4381 40.2288 14.4379C39.2286 13.4377 38.6667 12.0811 38.6667 10.6666C38.6667 9.25216 39.2286 7.8956 40.2288 6.89541C41.229 5.89522 42.5855 5.33331 44 5.33331Z" fill="#F5821F"/>
</svg>
