<svg width="48" height="32" viewBox="0 0 48 32" fill="none" xmlns="http://www.w3.org/2000/svg">
<path d="M14.4977 0C15.5586 0 16.576 0.421427 17.3261 1.17157C18.0763 1.92172 18.4977 2.93913 18.4977 4C18.4977 5.06087 18.0763 6.07828 17.3261 6.82843C16.576 7.57857 15.5586 8 14.4977 8C13.4368 8 12.4194 7.57857 11.6693 6.82843C10.9191 6.07828 10.4977 5.06087 10.4977 4C10.4977 2.93913 10.9191 1.92172 11.6693 1.17157C12.4194 0.421427 13.4368 0 14.4977 0ZM9.9977 30V25H8.8852C8.20395 25 7.7227 24.3312 7.9352 23.6812L9.87895 17.8438L8.09145 20.2062C7.4227 21.0875 6.16645 21.2563 5.29145 20.5938C4.41645 19.9312 4.24145 18.675 4.90395 17.7938L8.58521 12.9375C9.98521 11.0875 12.179 10 14.4977 10C16.8165 10 19.0102 11.0875 20.4102 12.9375L24.0915 17.7938C24.7602 18.675 24.5852 19.9312 23.704 20.5938C22.8227 21.2563 21.5665 21.0875 20.904 20.2062L19.1165 17.8438L21.0602 23.6812C21.279 24.3312 20.7915 25 20.1102 25H18.9977V30C18.9977 31.1063 18.104 32 16.9977 32C15.8915 32 14.9977 31.1063 14.9977 30V25H13.9977V30C13.9977 31.1063 13.104 32 11.9977 32C10.8915 32 9.9977 31.1063 9.9977 30ZM34.4977 0C35.5586 0 36.576 0.421427 37.3261 1.17157C38.0763 1.92172 38.4977 2.93913 38.4977 4C38.4977 5.06087 38.0763 6.07828 37.3261 6.82843C36.576 7.57857 35.5586 8 34.4977 8C33.4368 8 32.4194 7.57857 31.6693 6.82843C30.9191 6.07828 30.4977 5.06087 30.4977 4C30.4977 2.93913 30.9191 1.92172 31.6693 1.17157C32.4194 0.421427 33.4368 0 34.4977 0ZM33.9977 24V30C33.9977 31.1063 33.104 32 31.9977 32C30.8915 32 29.9977 31.1063 29.9977 30V18.7812L29.1915 20.0625C28.604 21 27.3665 21.275 26.4352 20.6875C25.504 20.1 25.2227 18.8625 25.8102 17.9312L29.0415 12.8C30.1415 11.0563 32.0602 9.99375 34.1165 9.99375H34.8852C36.9477 9.99375 38.8665 11.05 39.9602 12.8L43.1915 17.9375C43.779 18.875 43.4977 20.1063 42.5665 20.6938C41.6352 21.2812 40.3977 21 39.8102 20.0688L38.9977 18.7812V30C38.9977 31.1063 38.104 32 36.9977 32C35.8915 32 34.9977 31.1063 34.9977 30V24H33.9977Z" fill="#FBFCFF"/>
</svg>
