<svg width="64" height="64" viewBox="0 0 64 64" fill="none" xmlns="http://www.w3.org/2000/svg">
<path d="M31.9998 56.0001C35.1516 56.0001 38.2724 55.3793 41.1842 54.1732C44.0961 52.9671 46.7418 51.1992 48.9704 48.9706C51.199 46.742 52.9668 44.0963 54.173 41.1845C55.3791 38.2727 55.9998 35.1518 55.9998 32.0001C55.9998 28.8484 55.3791 25.7275 54.173 22.8157C52.9668 19.9039 51.199 17.2581 48.9704 15.0295C46.7418 12.8009 44.0961 11.0331 41.1842 9.82697C38.2724 8.62086 35.1516 8.00008 31.9998 8.00008C25.6346 8.00008 19.5301 10.5286 15.0293 15.0295C10.5284 19.5304 7.99984 25.6349 7.99984 32.0001C7.99984 38.3653 10.5284 44.4698 15.0293 48.9706C19.5301 53.4715 25.6346 56.0001 31.9998 56.0001ZM61.3332 32.0001C61.3332 48.2001 48.1998 61.3334 31.9998 61.3334C15.7998 61.3334 2.6665 48.2001 2.6665 32.0001C2.6665 15.8001 15.7998 2.66675 31.9998 2.66675C48.1998 2.66675 61.3332 15.8001 61.3332 32.0001ZM39.9998 43.7707L29.3332 33.1041V14.6667H34.6665V30.8961L43.7705 40.0001L39.9998 43.7707Z" fill="black"/>
</svg>
