<svg width="192" height="192" viewBox="0 0 192 192" fill="none" xmlns="http://www.w3.org/2000/svg">
<path d="M75 0H117V93H96V23H75V0Z" fill="#FBFCFF"/>
<path d="M123 0H165V93H144V23H123V0Z" fill="#FBFCFF"/>
<rect x="48" y="70" width="21" height="23" fill="#F5821F"/>
<rect x="171" y="70" width="21" height="23" fill="#F5821F"/>
<path d="M0 0H42V23H21V35H42V93H0V69H21V58H0V0Z" fill="#FBFCFF"/>
<path d="M47.9999 99L63.9999 99.0002V168H75.0434V123H63.9999V99.0002L75.0434 99H90V168L89.9999 192H47.9999V99Z" fill="#FBFCFF"/>
<path d="M144 99H186V122H165V134H186V192H144V168H165V157H144V99Z" fill="#FBFCFF"/>
<path d="M138 99H96V122H117V134H96V192H138V168H117V157H138V99Z" fill="#FBFCFF"/>
<path d="M42 99H0V122H21V134H0V192H42V168H21V157H42V99Z" fill="#FBFCFF"/>
</svg>