<svg width="64" height="64" viewBox="0 0 64 64" fill="none" xmlns="http://www.w3.org/2000/svg">
<path d="M41.25 2L35.915 7.3375L56.6625 28.085L62 22.75L41.25 2Z" fill="#231F20"/>
<path d="M53.6512 30.4812L33.5 10.3237L31.2062 21L2 50.25L13.75 62L43.0288 32.775L53.6512 30.4812ZM30.0263 37.49C29.7004 37.8904 29.2585 38.1801 28.7614 38.3193C28.2643 38.4585 27.7363 38.4404 27.2499 38.2674C26.7634 38.0945 26.3425 37.7752 26.0448 37.3535C25.7471 36.9317 25.5873 36.4281 25.5873 35.9119C25.5873 35.3956 25.7471 34.892 26.0448 34.4703C26.3425 34.0485 26.7634 33.7292 27.2499 33.5563C27.7363 33.3834 28.2643 33.3653 28.7614 33.5045C29.2585 33.6437 29.7004 33.9333 30.0263 34.3337C30.3888 34.7799 30.5865 35.3374 30.5861 35.9123C30.5856 36.4872 30.387 37.0444 30.0238 37.49H30.0263Z" fill="#231F20"/>
</svg>
