<svg width="48" height="43" viewBox="0 0 48 43" fill="none" xmlns="http://www.w3.org/2000/svg">
<path d="M15 4C16.0609 4 17.0783 4.42143 17.8284 5.17157C18.5786 5.92172 19 6.93913 19 8C19 9.06087 18.5786 10.0783 17.8284 10.8284C17.0783 11.5786 16.0609 12 15 12C13.9391 12 12.9217 11.5786 12.1716 10.8284C11.4214 10.0783 11 9.06087 11 8C11 6.93913 11.4214 5.92172 12.1716 5.17157C12.9217 4.42143 13.9391 4 15 4ZM12 14H18C19.0609 14 20.0783 14.4214 20.8284 15.1716C21.5786 15.9217 22 16.9391 22 18V29H19V44H11V29H8V18C8 16.9391 8.42143 15.9217 9.17157 15.1716C9.92172 14.4214 10.9391 14 12 14ZM33 4C34.0609 4 35.0783 4.42143 35.8284 5.17157C36.5786 5.92172 37 6.93913 37 8C37 9.06087 36.5786 10.0783 35.8284 10.8284C35.0783 11.5786 34.0609 12 33 12C31.9391 12 30.9217 11.5786 30.1716 10.8284C29.4214 10.0783 29 9.06087 29 8C29 6.93913 29.4214 5.92172 30.1716 5.17157C30.9217 4.42143 31.9391 4 33 4ZM30 14H36C37.0609 14 38.0783 14.4214 38.8284 15.1716C39.5786 15.9217 40 16.9391 40 18V29H37V44H29V29H26V18C26 16.9391 26.4214 15.9217 27.1716 15.1716C27.9217 14.4214 28.9391 14 30 14Z" fill="#FBFCFF"/>
</svg>
