<svg width="48" height="43" viewBox="0 0 48 43" fill="none" xmlns="http://www.w3.org/2000/svg">
<path d="M11 44V30H7V18C7 16.9 7.392 15.9587 8.176 15.176C8.96 14.3933 9.90133 14.0013 11 14H19C20.1 14 21.042 14.392 21.826 15.176C22.61 15.96 23.0013 16.9013 23 18V30H19V44H11ZM15 12C13.9 12 12.9587 11.6087 12.176 10.826C11.3933 10.0433 11.0013 9.10135 11 8.00001C10.9987 6.89868 11.3907 5.95735 12.176 5.17601C12.9613 4.39468 13.9027 4.00268 15 4.00001C16.0973 3.99735 17.0393 4.38935 17.826 5.17601C18.6127 5.96268 19.004 6.90401 19 8.00001C18.996 9.09601 18.6047 10.038 17.826 10.826C17.0473 11.614 16.1053 12.0053 15 12Z" fill="#FBFCFF"/>
<path d="M29 44V32H23L29.1 16.6C29.4333 15.8 29.95 15.1667 30.65 14.7C31.35 14.2333 32.1333 14 33 14C33.8667 14 34.65 14.2333 35.35 14.7C36.05 15.1667 36.5667 15.8 36.9 16.6L43 32H37V44H29ZM33 12C31.9 12 30.9587 11.6087 30.176 10.826C29.3933 10.0433 29.0013 9.10135 29 8.00001C28.9987 6.89868 29.3907 5.95735 30.176 5.17601C30.9613 4.39468 31.9027 4.00268 33 4.00001C34.0973 3.99735 35.0393 4.38935 35.826 5.17601C36.6127 5.96268 37.004 6.90401 37 8.00001C36.996 9.09601 36.6047 10.038 35.826 10.826C35.0473 11.614 34.1053 12.0053 33 12Z" fill="#FBFCFF"/>
</svg>
