<svg width="65" height="64" viewBox="0 0 65 64" fill="none" xmlns="http://www.w3.org/2000/svg">
<path d="M32.6663 33.3334C30.191 33.3334 27.817 34.3167 26.0667 36.067C24.3163 37.8174 23.333 40.1914 23.333 42.6667C23.333 45.1421 24.3163 47.516 26.0667 49.2664C27.817 51.0167 30.191 52 32.6663 52C35.1417 52 37.5157 51.0167 39.266 49.2664C41.0163 47.516 41.9997 45.1421 41.9997 42.6667C41.9997 40.1914 41.0163 37.8174 39.266 36.067C37.5157 34.3167 35.1417 33.3334 32.6663 33.3334ZM28.6663 42.6667C28.6663 41.6058 29.0878 40.5884 29.8379 39.8383C30.5881 39.0881 31.6055 38.6667 32.6663 38.6667C33.7272 38.6667 34.7446 39.0881 35.4948 39.8383C36.2449 40.5884 36.6663 41.6058 36.6663 42.6667C36.6663 43.7276 36.2449 44.745 35.4948 45.4951C34.7446 46.2453 33.7272 46.6667 32.6663 46.6667C31.6055 46.6667 30.5881 46.2453 29.8379 45.4951C29.0878 44.745 28.6663 43.7276 28.6663 42.6667Z" fill="#231F20"/>
<path d="M47.4025 13.6427L38.9252 1.75732L7.7545 26.6587L6.0265 26.64V26.6667H4.6665V58.6667H60.6665V26.6667H58.1012L52.9972 11.736L47.4025 13.6427ZM52.4665 26.6667H25.7252L45.6425 19.8773L49.7012 18.5787L52.4665 26.6667ZM42.1332 15.44L21.5732 22.448L37.8558 9.43999L42.1332 15.44ZM9.99984 48.4507V36.8773C11.1256 36.48 12.1482 35.8357 12.9927 34.9918C13.8371 34.1478 14.4819 33.1256 14.8798 32H50.4532C50.8508 33.1261 51.4954 34.1488 52.3399 34.9933C53.1843 35.8377 54.2071 36.4824 55.3332 36.88V48.4533C54.2071 48.8509 53.1843 49.4956 52.3399 50.34C51.4954 51.1845 50.8508 52.2072 50.4532 53.3333H14.8852C14.4857 52.2071 13.8397 51.1844 12.9946 50.3396C12.1494 49.4949 11.1262 48.8496 9.99984 48.4507Z" fill="#231F20"/>
</svg>
