<svg width="65" height="64" viewBox="0 0 65 64" fill="none" xmlns="http://www.w3.org/2000/svg">
<path d="M24.3328 26.6667C24.3604 24.5535 25.2122 22.5347 26.7065 21.0404C28.2008 19.546 30.2197 18.6943 32.3328 18.6667C34.4459 18.6943 36.4648 19.546 37.9591 21.0404C39.4535 22.5347 40.3052 24.5535 40.3328 26.6667C40.3052 28.7798 39.4535 30.7986 37.9591 32.293C36.4648 33.7873 34.4459 34.6391 32.3328 34.6667C30.2197 34.6391 28.2008 33.7873 26.7065 32.293C25.2122 30.7986 24.3604 28.7798 24.3328 26.6667ZM32.3328 50.6667L42.9995 53.3333V45.12C39.7826 47.0572 36.0875 48.0549 32.3328 48C28.5781 48.0549 24.883 47.0572 21.6661 45.12V53.3333M32.3328 10.6667C30.2314 10.6283 28.1443 11.0202 26.1999 11.8181C24.2555 12.6161 22.4948 13.8032 21.0261 15.3067C19.5064 16.777 18.3055 18.5443 17.4981 20.4986C16.6907 22.4529 16.294 24.5525 16.3328 26.6667C16.305 28.7675 16.707 30.8518 17.5141 32.7916C18.3212 34.7313 19.5164 36.4856 21.0261 37.9467C22.488 39.4646 24.2456 40.6666 26.1903 41.4784C28.1351 42.2903 30.2256 42.6947 32.3328 42.6667C34.44 42.6947 36.5306 42.2903 38.4753 41.4784C40.42 40.6666 42.1776 39.4646 43.6395 37.9467C45.1493 36.4856 46.3444 34.7313 47.1515 32.7916C47.9586 30.8518 48.3606 28.7675 48.3328 26.6667C48.3716 24.5525 47.9749 22.4529 47.1675 20.4986C46.3601 18.5443 45.1592 16.777 43.6395 15.3067C42.1708 13.8032 40.4101 12.6161 38.4657 11.8181C36.5213 11.0202 34.4342 10.6283 32.3328 10.6667ZM53.6661 26.6667C53.6117 29.2266 53.0968 31.7558 52.1461 34.1334C51.2939 36.5542 50.001 38.7964 48.3328 40.7467V61.3333L32.3328 56L16.3328 61.3333V40.7467C12.8813 36.8706 10.9821 31.8568 10.9995 26.6667C10.9525 23.8682 11.4796 21.0899 12.5482 18.5031C13.6169 15.9163 15.2044 13.576 17.2128 11.6267C19.1693 9.60028 21.5204 7.99637 24.121 6.91396C26.7215 5.83155 29.5163 5.29362 32.3328 5.33335C35.1493 5.29362 37.9441 5.83155 40.5446 6.91396C43.1452 7.99637 45.4963 9.60028 47.4528 11.6267C49.4612 13.576 51.0487 15.9163 52.1174 18.5031C53.186 21.0899 53.7131 23.8682 53.6661 26.6667Z" fill="#231F20"/>
</svg>
