<svg width="48" height="43" viewBox="0 0 48 43" fill="none" xmlns="http://www.w3.org/2000/svg">
<path d="M15 4C16.0609 4 17.0783 4.42143 17.8284 5.17157C18.5786 5.92172 19 6.93913 19 8C19 9.06087 18.5786 10.0783 17.8284 10.8284C17.0783 11.5786 16.0609 12 15 12C13.9391 12 12.9217 11.5786 12.1716 10.8284C11.4214 10.0783 11 9.06087 11 8C11 6.93913 11.4214 5.92172 12.1716 5.17157C12.9217 4.42143 13.9391 4 15 4ZM12 44V32H6L11.2 16.8C11.8 15.2 13.2 14 15 14C16.8 14 18.4 15.2 18.8 16.8L24 32L29.2 16.8C29.8 15.2 31.2 14 33 14C34.8 14 36.4 15.2 36.8 16.8L42 32H36V44H30V32H18V44H12ZM33 4C34.0609 4 35.0783 4.42143 35.8284 5.17157C36.5786 5.92172 37 6.93913 37 8C37 9.06087 36.5786 10.0783 35.8284 10.8284C35.0783 11.5786 34.0609 12 33 12C31.9391 12 30.9217 11.5786 30.1716 10.8284C29.4214 10.0783 29 9.06087 29 8C29 6.93913 29.4214 5.92172 30.1716 5.17157C30.9217 4.42143 31.9391 4 33 4Z" fill="#FBFCFF"/>
</svg>
